{
	"patcher" : 	{
		"fileversion" : 1,
		"appversion" : 		{
			"major" : 8,
			"minor" : 2,
			"revision" : 1,
			"architecture" : "x64",
			"modernui" : 1
		}
,
		"classnamespace" : "box",
		"rect" : [ 34.0, 87.0, 1055.0, 755.0 ],
		"bglocked" : 0,
		"openinpresentation" : 0,
		"default_fontsize" : 12.0,
		"default_fontface" : 0,
		"default_fontname" : "Arial",
		"gridonopen" : 1,
		"gridsize" : [ 15.0, 15.0 ],
		"gridsnaponopen" : 1,
		"objectsnaponopen" : 1,
		"statusbarvisible" : 2,
		"toolbarvisible" : 1,
		"lefttoolbarpinned" : 0,
		"toptoolbarpinned" : 0,
		"righttoolbarpinned" : 0,
		"bottomtoolbarpinned" : 0,
		"toolbars_unpinned_last_save" : 0,
		"tallnewobj" : 0,
		"boxanimatetime" : 200,
		"enablehscroll" : 1,
		"enablevscroll" : 1,
		"devicewidth" : 0.0,
		"description" : "",
		"digest" : "",
		"tags" : "",
		"style" : "",
		"subpatcher_template" : "",
		"assistshowspatchername" : 0,
		"boxes" : [ 			{
				"box" : 				{
					"fontface" : 1,
					"id" : "obj-22",
					"maxclass" : "comment",
					"numinlets" : 1,
					"numoutlets" : 0,
					"patching_rect" : [ 108.066666666666606, 449.5, 176.399999999999977, 20.0 ],
					"text" : "Chord Sequence Generation "
				}

			}
, 			{
				"box" : 				{
					"id" : "obj-17",
					"maxclass" : "comment",
					"numinlets" : 1,
					"numoutlets" : 0,
					"patching_rect" : [ 18.0, 312.0, 226.099999999999909, 20.0 ],
					"text" : "↓ Click the button below for new chords"
				}

			}
, 			{
				"box" : 				{
					"id" : "obj-74",
					"maxclass" : "comment",
					"numinlets" : 1,
					"numoutlets" : 0,
					"patching_rect" : [ 463.0, 94.5, 61.666666656732673, 20.0 ],
					"text" : "# of notes"
				}

			}
, 			{
				"box" : 				{
					"id" : "obj-72",
					"maxclass" : "live.menu",
					"numinlets" : 1,
					"numoutlets" : 3,
					"outlettype" : [ "", "", "float" ],
					"parameter_enable" : 1,
					"patching_rect" : [ 475.75, 116.5, 59.0, 15.0 ],
					"saved_attribute_attributes" : 					{
						"valueof" : 						{
							"parameter_enum" : [ "1", "2", "3", "4" ],
							"parameter_initial" : [ 3.0 ],
							"parameter_initial_enable" : 1,
							"parameter_longname" : "live.menu[5]",
							"parameter_mmax" : 3,
							"parameter_shortname" : "live.menu",
							"parameter_type" : 2
						}

					}
,
					"varname" : "live.menu[5]"
				}

			}
, 			{
				"box" : 				{
					"id" : "obj-71",
					"maxclass" : "newobj",
					"numinlets" : 1,
					"numoutlets" : 1,
					"outlettype" : [ "bang" ],
					"patching_rect" : [ 298.399999999999864, 311.0, 58.0, 22.0 ],
					"text" : "loadbang"
				}

			}
, 			{
				"box" : 				{
					"id" : "obj-70",
					"maxclass" : "newobj",
					"numinlets" : 1,
					"numoutlets" : 0,
					"patching_rect" : [ 368.499999999999773, 448.5, 45.0, 22.0 ],
					"text" : "s done"
				}

			}
, 			{
				"box" : 				{
					"id" : "obj-69",
					"maxclass" : "newobj",
					"numinlets" : 1,
					"numoutlets" : 0,
					"patching_rect" : [ 18.0, 448.5, 47.0, 22.0 ],
					"text" : "s steps"
				}

			}
, 			{
				"box" : 				{
					"id" : "obj-68",
					"maxclass" : "newobj",
					"numinlets" : 0,
					"numoutlets" : 1,
					"outlettype" : [ "" ],
					"patching_rect" : [ 368.499999999999773, 381.0, 45.0, 22.0 ],
					"text" : "r count"
				}

			}
, 			{
				"box" : 				{
					"id" : "obj-67",
					"maxclass" : "message",
					"numinlets" : 2,
					"numoutlets" : 1,
					"outlettype" : [ "" ],
					"patching_rect" : [ 298.399999999999864, 381.0, 45.0, 22.0 ],
					"text" : "0 2 4 6"
				}

			}
, 			{
				"box" : 				{
					"id" : "obj-55",
					"maxclass" : "comment",
					"numinlets" : 1,
					"numoutlets" : 0,
					"patching_rect" : [ 52.099999999999909, 355.0, 42.0, 20.0 ],
					"text" : "Mode"
				}

			}
, 			{
				"box" : 				{
					"id" : "obj-57",
					"maxclass" : "comment",
					"numinlets" : 1,
					"numoutlets" : 0,
					"patching_rect" : [ 183.099999999999909, 381.0, 48.0, 20.0 ],
					"text" : "Octave"
				}

			}
, 			{
				"box" : 				{
					"id" : "obj-63",
					"maxclass" : "comment",
					"numinlets" : 1,
					"numoutlets" : 0,
					"patching_rect" : [ 108.066666666666606, 380.0, 36.0, 20.0 ],
					"text" : "Key"
				}

			}
, 			{
				"box" : 				{
					"fontsize" : 12.0,
					"id" : "obj-64",
					"maxclass" : "live.menu",
					"numinlets" : 1,
					"numoutlets" : 3,
					"outlettype" : [ "", "", "float" ],
					"parameter_enable" : 1,
					"patching_rect" : [ 88.099999999999909, 355.0, 143.0, 18.0 ],
					"saved_attribute_attributes" : 					{
						"valueof" : 						{
							"parameter_enum" : [ "major", "natural minor", "harmonic minor", "melodic minor v", "melodic minor ^", "lydian", "ionian", "mixolydian", "dorian", "aeolian", "phrygian", "locrian", "pentatonic major", "pentatonic minor", "bebop dominant", "bebop dorian", "bebop major", "bebop melodic minor", "lydian b7", "altered", "symmetrical diminished", "blues", "whole tone" ],
							"parameter_initial" : [ 1.0 ],
							"parameter_initial_enable" : 1,
							"parameter_longname" : "live.menu[8]",
							"parameter_mmax" : 22,
							"parameter_shortname" : "live.menu",
							"parameter_type" : 2
						}

					}
,
					"varname" : "live.menu[8]"
				}

			}
, 			{
				"box" : 				{
					"fontsize" : 12.0,
					"id" : "obj-65",
					"maxclass" : "live.menu",
					"numinlets" : 1,
					"numoutlets" : 3,
					"outlettype" : [ "", "", "float" ],
					"parameter_enable" : 1,
					"patching_rect" : [ 228.299999999999955, 381.0, 40.0, 18.0 ],
					"saved_attribute_attributes" : 					{
						"valueof" : 						{
							"parameter_enum" : [ "-2", "-1", "0", "1", "2", "3", "4", "5", "6", "7", "8" ],
							"parameter_initial" : [ 5.0 ],
							"parameter_initial_enable" : 1,
							"parameter_longname" : "live.menu[9]",
							"parameter_mmax" : 10,
							"parameter_shortname" : "live.menu",
							"parameter_type" : 2
						}

					}
,
					"varname" : "live.menu[9]"
				}

			}
, 			{
				"box" : 				{
					"fontsize" : 12.0,
					"id" : "obj-66",
					"maxclass" : "live.menu",
					"numinlets" : 1,
					"numoutlets" : 3,
					"outlettype" : [ "", "", "float" ],
					"parameter_enable" : 1,
					"patching_rect" : [ 139.599999999999909, 381.0, 40.0, 18.0 ],
					"saved_attribute_attributes" : 					{
						"valueof" : 						{
							"parameter_enum" : [ "C", "C#", "D", "D#", "E", "F", "F#", "G", "G#", "A", "A#", "B" ],
							"parameter_initial" : [ 0.0 ],
							"parameter_initial_enable" : 1,
							"parameter_longname" : "live.menu[10]",
							"parameter_mmax" : 11,
							"parameter_shortname" : "live.menu",
							"parameter_type" : 2
						}

					}
,
					"varname" : "live.menu[10]"
				}

			}
, 			{
				"box" : 				{
					"id" : "obj-18",
					"maxclass" : "live.button",
					"numinlets" : 1,
					"numoutlets" : 1,
					"outlettype" : [ "" ],
					"parameter_enable" : 1,
					"patching_rect" : [ 18.0, 377.0, 22.0, 22.0 ],
					"saved_attribute_attributes" : 					{
						"valueof" : 						{
							"parameter_enum" : [ "off", "on" ],
							"parameter_longname" : "live.button[6]",
							"parameter_mmax" : 1,
							"parameter_shortname" : "live.button",
							"parameter_type" : 2
						}

					}
,
					"varname" : "live.button[3]"
				}

			}
, 			{
				"box" : 				{
					"id" : "obj-14",
					"maxclass" : "newobj",
					"numinlets" : 6,
					"numoutlets" : 2,
					"outlettype" : [ "", "bang" ],
					"patching_rect" : [ 18.0, 413.5, 369.499999999999773, 22.0 ],
					"text" : "GenerateChords"
				}

			}
, 			{
				"box" : 				{
					"id" : "obj-86",
					"maxclass" : "newobj",
					"numinlets" : 0,
					"numoutlets" : 1,
					"outlettype" : [ "" ],
					"patching_rect" : [ 587.0, 231.25, 43.0, 22.0 ],
					"text" : "r done"
				}

			}
, 			{
				"box" : 				{
					"id" : "obj-82",
					"maxclass" : "newobj",
					"numinlets" : 0,
					"numoutlets" : 1,
					"outlettype" : [ "" ],
					"patching_rect" : [ 467.0, 263.0, 45.0, 22.0 ],
					"text" : "r steps"
				}

			}
, 			{
				"box" : 				{
					"fontsize" : 18.0,
					"id" : "obj-23",
					"linecount" : 9,
					"maxclass" : "comment",
					"numinlets" : 1,
					"numoutlets" : 0,
					"patching_rect" : [ 12.0, 46.0, 375.0, 187.0 ],
					"text" : "● Once we have the basic patcher for generating chords, we can modify it to be an arpeggiator.\n\n● For this to happen, we need to modify the counting mechanism. \n\n● This patcher uses two [couter]s for changing target sequencer and current step."
				}

			}
, 			{
				"box" : 				{
					"fontsize" : 24.0,
					"id" : "obj-24",
					"maxclass" : "comment",
					"numinlets" : 1,
					"numoutlets" : 0,
					"patching_rect" : [ 12.0, 7.0, 370.0, 33.0 ],
					"text" : "Arpeggiation"
				}

			}
, 			{
				"box" : 				{
					"id" : "obj-48",
					"maxclass" : "comment",
					"numinlets" : 1,
					"numoutlets" : 0,
					"patching_rect" : [ 588.0, 485.25, 71.75, 20.0 ],
					"text" : "Transpose"
				}

			}
, 			{
				"box" : 				{
					"id" : "obj-46",
					"maxclass" : "live.numbox",
					"numinlets" : 1,
					"numoutlets" : 2,
					"outlettype" : [ "", "float" ],
					"parameter_enable" : 1,
					"patching_rect" : [ 590.0, 501.25, 44.0, 15.0 ],
					"saved_attribute_attributes" : 					{
						"valueof" : 						{
							"parameter_longname" : "live.numbox[2]",
							"parameter_shortname" : "live.numbox[2]",
							"parameter_type" : 0,
							"parameter_unitstyle" : 0
						}

					}
,
					"varname" : "live.numbox[2]"
				}

			}
, 			{
				"box" : 				{
					"id" : "obj-41",
					"maxclass" : "newobj",
					"numinlets" : 2,
					"numoutlets" : 2,
					"outlettype" : [ "int", "" ],
					"patching_rect" : [ 434.0, 526.25, 175.0, 22.0 ],
					"text" : "PlaybackControl"
				}

			}
, 			{
				"box" : 				{
					"id" : "obj-35",
					"linecount" : 3,
					"maxclass" : "comment",
					"numinlets" : 1,
					"numoutlets" : 0,
					"patching_rect" : [ 890.0, 134.5, 154.0, 47.0 ],
					"text" : "Select which Sequencer to edit first. Then set the step size."
				}

			}
, 			{
				"box" : 				{
					"id" : "obj-33",
					"maxclass" : "comment",
					"numinlets" : 1,
					"numoutlets" : 0,
					"patching_rect" : [ 864.0, 236.25, 168.5, 20.0 ],
					"text" : "← Select Current Sequencer"
				}

			}
, 			{
				"box" : 				{
					"id" : "obj-30",
					"maxclass" : "comment",
					"numinlets" : 1,
					"numoutlets" : 0,
					"patching_rect" : [ 722.400000000000091, 222.25, 44.5, 20.0 ],
					"text" : "Mode"
				}

			}
, 			{
				"box" : 				{
					"autosave" : 1,
					"bgmode" : 1,
					"border" : 0,
					"clickthrough" : 0,
					"enablehscroll" : 0,
					"enablevscroll" : 0,
					"id" : "obj-27",
					"linecount" : 2,
					"lockeddragscroll" : 0,
					"lockedsize" : 0,
					"maxclass" : "newobj",
					"numinlets" : 3,
					"numoutlets" : 4,
					"offset" : [ 0.0, 0.0 ],
					"outlettype" : [ "signal", "signal", "", "" ],
					"patching_rect" : [ 699.400000000000091, 487.333334296941757, 343.0, 196.0 ],
					"presentation_linecount" : 2,
					"saved_attribute_attributes" : 					{
						"valueof" : 						{
							"parameter_invisible" : 1,
							"parameter_longname" : "amxd~",
							"parameter_shortname" : "amxd~",
							"parameter_type" : 3
						}

					}
,
					"saved_object_attributes" : 					{
						"parameter_enable" : 1,
						"patchername" : "Additive Heaven.amxd",
						"patchername_fallback" : "C74:/packages/Max for Live/patchers/Max Instrument/Additive Heaven/Additive Heaven.amxd"
					}
,
					"snapshot" : 					{
						"filetype" : "C74Snapshot",
						"version" : 2,
						"minorversion" : 0,
						"name" : "snapshotlist",
						"origin" : "max~",
						"type" : "list",
						"subtype" : "Undefined",
						"embed" : 1,
						"snapshot" : 						{
							"name" : "Additive Heaven.amxd",
							"origname" : "C74:/packages/Max for Live/patchers/Max Instrument/Additive Heaven/Additive Heaven.amxd",
							"valuedictionary" : 							{
								"parameter_values" : 								{
									"attack" : 1.0,
									"decay" : 109.0,
									"env_curve" : 0.1,
									"harm_num_2" : 12.0,
									"harm_num_3" : 39.0,
									"harm_num_4" : 8.0,
									"harm_num_5" : 25.0,
									"harm_num_6" : 102.0,
									"harm_num_7" : 103.0,
									"harm_num_8" : 39.0,
									"harm_val_2" : 0.98,
									"harm_val_3" : 3.0,
									"harm_val_4" : 0.66,
									"harm_val_5" : 1.98,
									"harm_val_6" : 8.0,
									"harm_val_7" : 8.02,
									"harm_val_8" : 3.0,
									"harmonic_2" : 12.0,
									"harmonic_3" : 39.0,
									"harmonic_4" : 8.0,
									"harmonic_5" : 25.0,
									"harmonic_6" : 102.0,
									"harmonic_7" : 103.0,
									"harmonic_8" : 39.0,
									"level" : 0.0,
									"pan_1" : 33.0,
									"pan_2" : -16.0,
									"pan_3" : -8.0,
									"pan_4" : 4.0,
									"pan_5" : -21.0,
									"pan_6" : 19.0,
									"pan_7" : -51.0,
									"pan_8" : 56.0,
									"polyphony" : 16.0,
									"release" : 10.0,
									"sustain" : 100.0,
									"vol_harm" : 0.0,
									"vol_num_1" : 127.0,
									"vol_num_2" : 46.0,
									"vol_num_3" : 28.0,
									"vol_num_4" : 30.0,
									"vol_num_5" : 55.0,
									"vol_num_6" : 62.0,
									"vol_num_7" : 30.0,
									"vol_num_8" : 42.0,
									"volume_1" : 127.0,
									"volume_2" : 46.0,
									"volume_3" : 28.0,
									"volume_4" : 30.0,
									"volume_5" : 55.0,
									"volume_6" : 62.0,
									"volume_7" : 30.0,
									"volume_8" : 42.0
								}

							}

						}
,
						"snapshotlist" : 						{
							"current_snapshot" : 0,
							"entries" : [ 								{
									"filetype" : "C74Snapshot",
									"version" : 2,
									"minorversion" : 0,
									"name" : "Additive Heaven.amxd",
									"origin" : "Additive Heaven.amxd",
									"type" : "amxd",
									"subtype" : "Undefined",
									"embed" : 0,
									"snapshot" : 									{
										"name" : "Additive Heaven.amxd",
										"origname" : "C74:/packages/Max for Live/patchers/Max Instrument/Additive Heaven/Additive Heaven.amxd",
										"valuedictionary" : 										{
											"parameter_values" : 											{
												"attack" : 1.0,
												"decay" : 109.0,
												"env_curve" : 0.1,
												"harm_num_2" : 12.0,
												"harm_num_3" : 39.0,
												"harm_num_4" : 8.0,
												"harm_num_5" : 25.0,
												"harm_num_6" : 102.0,
												"harm_num_7" : 103.0,
												"harm_num_8" : 39.0,
												"harm_val_2" : 0.98,
												"harm_val_3" : 3.0,
												"harm_val_4" : 0.66,
												"harm_val_5" : 1.98,
												"harm_val_6" : 8.0,
												"harm_val_7" : 8.02,
												"harm_val_8" : 3.0,
												"harmonic_2" : 12.0,
												"harmonic_3" : 39.0,
												"harmonic_4" : 8.0,
												"harmonic_5" : 25.0,
												"harmonic_6" : 102.0,
												"harmonic_7" : 103.0,
												"harmonic_8" : 39.0,
												"level" : 0.0,
												"pan_1" : 33.0,
												"pan_2" : -16.0,
												"pan_3" : -8.0,
												"pan_4" : 4.0,
												"pan_5" : -21.0,
												"pan_6" : 19.0,
												"pan_7" : -51.0,
												"pan_8" : 56.0,
												"polyphony" : 16.0,
												"release" : 10.0,
												"sustain" : 100.0,
												"vol_harm" : 0.0,
												"vol_num_1" : 127.0,
												"vol_num_2" : 46.0,
												"vol_num_3" : 28.0,
												"vol_num_4" : 30.0,
												"vol_num_5" : 55.0,
												"vol_num_6" : 62.0,
												"vol_num_7" : 30.0,
												"vol_num_8" : 42.0,
												"volume_1" : 127.0,
												"volume_2" : 46.0,
												"volume_3" : 28.0,
												"volume_4" : 30.0,
												"volume_5" : 55.0,
												"volume_6" : 62.0,
												"volume_7" : 30.0,
												"volume_8" : 42.0
											}

										}

									}
,
									"fileref" : 									{
										"name" : "Additive Heaven.amxd",
										"filename" : "Additive Heaven.amxd.maxsnap",
										"filepath" : "~/Documents/Max 8/Snapshots",
										"filepos" : -1,
										"snapshotfileid" : "525a62ec8518aa296bcb90c4e44836e8"
									}

								}
 ]
						}

					}
,
					"text" : "amxd~ \"C74:/packages/Max for Live/patchers/Max Instrument/Additive Heaven/Additive Heaven.amxd\"",
					"varname" : "amxd~",
					"viewvisibility" : 1
				}

			}
, 			{
				"box" : 				{
					"id" : "obj-26",
					"maxclass" : "newobj",
					"numinlets" : 1,
					"numoutlets" : 2,
					"outlettype" : [ "bang", "int" ],
					"patching_rect" : [ 820.0, 43.5, 68.0, 22.0 ],
					"text" : "t b i"
				}

			}
, 			{
				"box" : 				{
					"id" : "obj-25",
					"maxclass" : "newobj",
					"numinlets" : 2,
					"numoutlets" : 1,
					"outlettype" : [ "" ],
					"patching_rect" : [ 842.0, 134.5, 46.0, 22.0 ],
					"text" : "pack i i"
				}

			}
, 			{
				"box" : 				{
					"id" : "obj-19",
					"maxclass" : "newobj",
					"numinlets" : 2,
					"numoutlets" : 3,
					"outlettype" : [ "bang", "bang", "int" ],
					"patching_rect" : [ 820.0, 81.5, 41.0, 22.0 ],
					"text" : "uzi 4"
				}

			}
, 			{
				"box" : 				{
					"id" : "obj-15",
					"maxclass" : "ezdac~",
					"numinlets" : 2,
					"numoutlets" : 0,
					"patching_rect" : [ 699.400000000000091, 701.333334296941757, 45.0, 45.0 ]
				}

			}
, 			{
				"box" : 				{
					"id" : "obj-12",
					"maxclass" : "live.menu",
					"numinlets" : 1,
					"numoutlets" : 3,
					"outlettype" : [ "", "", "float" ],
					"parameter_enable" : 1,
					"patching_rect" : [ 813.0, 238.25, 49.0, 15.0 ],
					"saved_attribute_attributes" : 					{
						"valueof" : 						{
							"parameter_enum" : [ "1", "2", "3", "4", "5", "6", "7", "8", "9", "10", "11", "12", "13", "14", "15", "16" ],
							"parameter_longname" : "live.menu[4]",
							"parameter_mmax" : 15,
							"parameter_shortname" : "live.menu",
							"parameter_type" : 2
						}

					}
,
					"varname" : "live.menu[4]"
				}

			}
, 			{
				"box" : 				{
					"id" : "obj-32",
					"maxclass" : "newobj",
					"numinlets" : 1,
					"numoutlets" : 0,
					"patching_rect" : [ 708.0, 152.5, 47.0, 22.0 ],
					"text" : "s count"
				}

			}
, 			{
				"box" : 				{
					"fontface" : 1,
					"id" : "obj-80",
					"maxclass" : "comment",
					"numinlets" : 1,
					"numoutlets" : 0,
					"patching_rect" : [ 810.866666666666788, 11.0, 231.533333333333303, 20.0 ],
					"text" : "Set maximum count for all sequencers"
				}

			}
, 			{
				"box" : 				{
					"fontface" : 1,
					"id" : "obj-75",
					"maxclass" : "comment",
					"numinlets" : 1,
					"numoutlets" : 0,
					"patching_rect" : [ 688.0, 7.0, 120.399999999999977, 20.0 ],
					"text" : "Time Management"
				}

			}
, 			{
				"box" : 				{
					"id" : "obj-47",
					"maxclass" : "message",
					"numinlets" : 2,
					"numoutlets" : 1,
					"outlettype" : [ "" ],
					"patching_rect" : [ 842.0, 176.75, 191.0, 22.0 ],
					"text" : "target_seq $1, nstep $2, loop 1 $2"
				}

			}
, 			{
				"box" : 				{
					"id" : "obj-9",
					"maxclass" : "newobj",
					"numinlets" : 5,
					"numoutlets" : 1,
					"outlettype" : [ "" ],
					"patching_rect" : [ 434.0, 152.5, 266.0, 22.0 ],
					"text" : "ArpCounter 4"
				}

			}
, 			{
				"box" : 				{
					"id" : "obj-4",
					"maxclass" : "live.button",
					"numinlets" : 1,
					"numoutlets" : 1,
					"outlettype" : [ "" ],
					"parameter_enable" : 1,
					"patching_rect" : [ 619.25, 113.0, 22.0, 22.0 ],
					"saved_attribute_attributes" : 					{
						"valueof" : 						{
							"parameter_enum" : [ "off", "on" ],
							"parameter_longname" : "live.button[3]",
							"parameter_mmax" : 1,
							"parameter_shortname" : "live.button",
							"parameter_type" : 2
						}

					}
,
					"varname" : "live.button[1]"
				}

			}
, 			{
				"box" : 				{
					"id" : "obj-11",
					"maxclass" : "comment",
					"numinlets" : 1,
					"numoutlets" : 0,
					"patching_rect" : [ 528.0, 94.5, 100.0, 20.0 ],
					"text" : "Count Direction"
				}

			}
, 			{
				"box" : 				{
					"id" : "obj-20",
					"maxclass" : "live.menu",
					"numinlets" : 1,
					"numoutlets" : 3,
					"outlettype" : [ "", "", "float" ],
					"parameter_enable" : 1,
					"patching_rect" : [ 539.666666656732673, 116.5, 73.0, 15.0 ],
					"saved_attribute_attributes" : 					{
						"valueof" : 						{
							"parameter_enum" : [ "up", "down", "palindrome" ],
							"parameter_initial" : [ 0.0 ],
							"parameter_initial_enable" : 1,
							"parameter_longname" : "live.menu[2]",
							"parameter_mmax" : 2,
							"parameter_shortname" : "live.menu",
							"parameter_type" : 2
						}

					}
,
					"varname" : "live.menu[2]"
				}

			}
, 			{
				"box" : 				{
					"id" : "obj-7",
					"maxclass" : "live.menu",
					"numinlets" : 1,
					"numoutlets" : 3,
					"outlettype" : [ "", "", "float" ],
					"parameter_enable" : 1,
					"patching_rect" : [ 688.0, 116.5, 59.0, 15.0 ],
					"saved_attribute_attributes" : 					{
						"valueof" : 						{
							"parameter_enum" : [ "2", "4", "8", "16", "32", "64" ],
							"parameter_initial" : [ 1.0 ],
							"parameter_initial_enable" : 1,
							"parameter_longname" : "live.menu[1]",
							"parameter_mmax" : 5,
							"parameter_shortname" : "live.menu",
							"parameter_type" : 2
						}

					}
,
					"varname" : "live.menu[1]"
				}

			}
, 			{
				"box" : 				{
					"id" : "obj-10",
					"maxclass" : "comment",
					"numinlets" : 1,
					"numoutlets" : 0,
					"patching_rect" : [ 699.400000000000091, 94.5, 102.5, 20.0 ],
					"text" : "Maximum Count"
				}

			}
, 			{
				"box" : 				{
					"id" : "obj-31",
					"maxclass" : "comment",
					"numinlets" : 1,
					"numoutlets" : 0,
					"patching_rect" : [ 619.25, 94.5, 90.5, 20.0 ],
					"text" : "Reset Counter"
				}

			}
, 			{
				"box" : 				{
					"id" : "obj-36",
					"maxclass" : "live.button",
					"numinlets" : 1,
					"numoutlets" : 1,
					"outlettype" : [ "" ],
					"parameter_enable" : 1,
					"patching_rect" : [ 434.0, 99.5, 22.0, 22.0 ],
					"saved_attribute_attributes" : 					{
						"valueof" : 						{
							"parameter_enum" : [ "off", "on" ],
							"parameter_longname" : "live.button",
							"parameter_mmax" : 1,
							"parameter_shortname" : "live.button",
							"parameter_type" : 2
						}

					}
,
					"varname" : "live.button"
				}

			}
, 			{
				"box" : 				{
					"id" : "obj-37",
					"maxclass" : "comment",
					"numinlets" : 1,
					"numoutlets" : 0,
					"patching_rect" : [ 424.5, 7.0, 100.0, 20.0 ],
					"text" : "On/off"
				}

			}
, 			{
				"box" : 				{
					"id" : "obj-38",
					"maxclass" : "comment",
					"numinlets" : 1,
					"numoutlets" : 0,
					"patching_rect" : [ 625.0, 7.0, 44.0, 20.0 ],
					"text" : "BPM"
				}

			}
, 			{
				"box" : 				{
					"id" : "obj-39",
					"maxclass" : "live.menu",
					"numinlets" : 1,
					"numoutlets" : 3,
					"outlettype" : [ "", "", "float" ],
					"parameter_enable" : 1,
					"patching_rect" : [ 489.0, 26.5, 100.0, 15.0 ],
					"saved_attribute_attributes" : 					{
						"valueof" : 						{
							"parameter_enum" : [ "1nd", "1n", "1nt", "2nd", "2n", "2nt", "4nd", "4n", "4nd", "8nd", "8n", "8nt", "16nd", "16n", "16nt" ],
							"parameter_initial" : [ 13.0 ],
							"parameter_initial_enable" : 1,
							"parameter_longname" : "live.menu[3]",
							"parameter_mmax" : 14,
							"parameter_shortname" : "live.menu",
							"parameter_type" : 2
						}

					}
,
					"varname" : "live.menu[3]"
				}

			}
, 			{
				"box" : 				{
					"id" : "obj-42",
					"maxclass" : "comment",
					"numinlets" : 1,
					"numoutlets" : 0,
					"patching_rect" : [ 489.0, 7.0, 100.0, 20.0 ],
					"text" : "Timing (Note)"
				}

			}
, 			{
				"box" : 				{
					"id" : "obj-43",
					"maxclass" : "live.numbox",
					"numinlets" : 1,
					"numoutlets" : 2,
					"outlettype" : [ "", "float" ],
					"parameter_enable" : 1,
					"patching_rect" : [ 625.0, 26.5, 44.0, 15.0 ],
					"saved_attribute_attributes" : 					{
						"valueof" : 						{
							"parameter_initial" : [ 120 ],
							"parameter_initial_enable" : 1,
							"parameter_longname" : "live.numbox",
							"parameter_mmax" : 320.0,
							"parameter_mmin" : 60.0,
							"parameter_shortname" : "live.numbox",
							"parameter_type" : 0,
							"parameter_unitstyle" : 0
						}

					}
,
					"varname" : "live.numbox"
				}

			}
, 			{
				"box" : 				{
					"id" : "obj-44",
					"maxclass" : "live.toggle",
					"numinlets" : 1,
					"numoutlets" : 1,
					"outlettype" : [ "" ],
					"parameter_enable" : 1,
					"patching_rect" : [ 434.0, 23.0, 22.0, 22.0 ],
					"saved_attribute_attributes" : 					{
						"valueof" : 						{
							"parameter_enum" : [ "off", "on" ],
							"parameter_longname" : "live.toggle",
							"parameter_mmax" : 1,
							"parameter_shortname" : "live.toggle",
							"parameter_type" : 2
						}

					}
,
					"varname" : "live.toggle"
				}

			}
, 			{
				"box" : 				{
					"id" : "obj-45",
					"maxclass" : "newobj",
					"numinlets" : 3,
					"numoutlets" : 1,
					"outlettype" : [ "bang" ],
					"patching_rect" : [ 434.0, 61.5, 210.0, 22.0 ],
					"text" : "ClockSource 16n @bpm 120"
				}

			}
, 			{
				"box" : 				{
					"id" : "obj-28",
					"maxclass" : "message",
					"numinlets" : 2,
					"numoutlets" : 1,
					"outlettype" : [ "" ],
					"patching_rect" : [ 828.0, 267.75, 95.0, 22.0 ],
					"text" : "display_seq $1"
				}

			}
, 			{
				"box" : 				{
					"id" : "obj-8",
					"maxclass" : "message",
					"numinlets" : 2,
					"numoutlets" : 1,
					"outlettype" : [ "" ],
					"patching_rect" : [ 587.0, 267.75, 75.0, 22.0 ],
					"text" : "target_seq 0"
				}

			}
, 			{
				"box" : 				{
					"id" : "obj-6",
					"maxclass" : "newobj",
					"numinlets" : 1,
					"numoutlets" : 1,
					"outlettype" : [ "bang" ],
					"patching_rect" : [ 636.0, 231.25, 58.0, 22.0 ],
					"text" : "loadbang"
				}

			}
, 			{
				"box" : 				{
					"id" : "obj-5",
					"maxclass" : "message",
					"numinlets" : 2,
					"numoutlets" : 1,
					"outlettype" : [ "" ],
					"patching_rect" : [ 664.5, 267.75, 45.0, 22.0 ],
					"text" : "nseq 4"
				}

			}
, 			{
				"box" : 				{
					"id" : "obj-3",
					"maxclass" : "newobj",
					"numinlets" : 1,
					"numoutlets" : 1,
					"outlettype" : [ "" ],
					"patching_rect" : [ 722.400000000000091, 267.75, 86.0, 22.0 ],
					"text" : "prepend mode"
				}

			}
, 			{
				"box" : 				{
					"id" : "obj-2",
					"maxclass" : "live.menu",
					"numinlets" : 1,
					"numoutlets" : 3,
					"outlettype" : [ "", "", "float" ],
					"parameter_enable" : 1,
					"patching_rect" : [ 722.400000000000091, 238.25, 86.0, 15.0 ],
					"saved_attribute_attributes" : 					{
						"valueof" : 						{
							"parameter_enum" : [ "All", "Pitch", "Velocity", "Duration", "extra1", "extra2" ],
							"parameter_longname" : "live.menu",
							"parameter_mmax" : 5,
							"parameter_shortname" : "live.menu",
							"parameter_type" : 2
						}

					}
,
					"varname" : "live.menu"
				}

			}
, 			{
				"box" : 				{
					"id" : "obj-1",
					"maxclass" : "live.step",
					"nseq" : 4,
					"numinlets" : 1,
					"numoutlets" : 5,
					"outlettype" : [ "", "", "", "", "" ],
					"parameter_enable" : 1,
					"patching_rect" : [ 434.0, 307.25, 608.400000000000091, 169.0 ],
					"saved_attribute_attributes" : 					{
						"valueof" : 						{
							"parameter_invisible" : 1,
							"parameter_longname" : "live.step",
							"parameter_shortname" : "live.step",
							"parameter_type" : 3
						}

					}
,
					"varname" : "live.step"
				}

			}
, 			{
				"box" : 				{
					"angle" : 270.0,
					"background" : 1,
					"bgcolor" : [ 1.0, 1.0, 1.0, 1.0 ],
					"id" : "obj-21",
					"maxclass" : "panel",
					"mode" : 0,
					"numinlets" : 1,
					"numoutlets" : 0,
					"patching_rect" : [ 12.0, 297.5, 410.533333333333303, 178.75 ],
					"proportion" : 0.5
				}

			}
, 			{
				"box" : 				{
					"angle" : 270.0,
					"background" : 1,
					"bgcolor" : [ 1.0, 1.0, 1.0, 1.0 ],
					"id" : "obj-40",
					"maxclass" : "panel",
					"mode" : 0,
					"numinlets" : 1,
					"numoutlets" : 0,
					"patching_rect" : [ 454.866666666666788, 222.25, 587.533333333333303, 80.5 ],
					"proportion" : 0.5
				}

			}
, 			{
				"box" : 				{
					"angle" : 270.0,
					"background" : 1,
					"bgcolor" : [ 1.0, 1.0, 1.0, 1.0 ],
					"id" : "obj-79",
					"maxclass" : "panel",
					"mode" : 0,
					"numinlets" : 1,
					"numoutlets" : 0,
					"patching_rect" : [ 810.866666666666788, 7.0, 231.533333333333303, 202.5 ],
					"proportion" : 0.5
				}

			}
, 			{
				"box" : 				{
					"angle" : 270.0,
					"background" : 1,
					"bgcolor" : [ 1.0, 1.0, 1.0, 1.0 ],
					"id" : "obj-73",
					"maxclass" : "panel",
					"mode" : 0,
					"numinlets" : 1,
					"numoutlets" : 0,
					"patching_rect" : [ 424.5, 7.0, 381.0, 202.5 ],
					"proportion" : 0.5
				}

			}
 ],
		"lines" : [ 			{
				"patchline" : 				{
					"destination" : [ "obj-41", 0 ],
					"source" : [ "obj-1", 0 ]
				}

			}
, 			{
				"patchline" : 				{
					"destination" : [ "obj-28", 0 ],
					"source" : [ "obj-12", 1 ]
				}

			}
, 			{
				"patchline" : 				{
					"destination" : [ "obj-69", 0 ],
					"source" : [ "obj-14", 0 ]
				}

			}
, 			{
				"patchline" : 				{
					"destination" : [ "obj-70", 0 ],
					"source" : [ "obj-14", 1 ]
				}

			}
, 			{
				"patchline" : 				{
					"destination" : [ "obj-14", 0 ],
					"source" : [ "obj-18", 0 ]
				}

			}
, 			{
				"patchline" : 				{
					"destination" : [ "obj-12", 0 ],
					"midpoints" : [ 840.5, 115.875, 822.5, 115.875 ],
					"source" : [ "obj-19", 1 ]
				}

			}
, 			{
				"patchline" : 				{
					"destination" : [ "obj-25", 0 ],
					"source" : [ "obj-19", 2 ]
				}

			}
, 			{
				"patchline" : 				{
					"destination" : [ "obj-3", 0 ],
					"source" : [ "obj-2", 0 ]
				}

			}
, 			{
				"patchline" : 				{
					"destination" : [ "obj-9", 2 ],
					"midpoints" : [ 549.166666656732673, 141.5, 567.0, 141.5 ],
					"source" : [ "obj-20", 0 ]
				}

			}
, 			{
				"patchline" : 				{
					"destination" : [ "obj-47", 0 ],
					"source" : [ "obj-25", 0 ]
				}

			}
, 			{
				"patchline" : 				{
					"destination" : [ "obj-19", 0 ],
					"source" : [ "obj-26", 0 ]
				}

			}
, 			{
				"patchline" : 				{
					"destination" : [ "obj-25", 1 ],
					"source" : [ "obj-26", 1 ]
				}

			}
, 			{
				"patchline" : 				{
					"destination" : [ "obj-15", 1 ],
					"source" : [ "obj-27", 1 ]
				}

			}
, 			{
				"patchline" : 				{
					"destination" : [ "obj-15", 0 ],
					"source" : [ "obj-27", 0 ]
				}

			}
, 			{
				"patchline" : 				{
					"destination" : [ "obj-1", 0 ],
					"midpoints" : [ 837.5, 298.0, 443.5, 298.0 ],
					"source" : [ "obj-28", 0 ]
				}

			}
, 			{
				"patchline" : 				{
					"destination" : [ "obj-1", 0 ],
					"midpoints" : [ 731.900000000000091, 298.0, 443.5, 298.0 ],
					"source" : [ "obj-3", 0 ]
				}

			}
, 			{
				"patchline" : 				{
					"destination" : [ "obj-9", 0 ],
					"source" : [ "obj-36", 0 ]
				}

			}
, 			{
				"patchline" : 				{
					"destination" : [ "obj-45", 1 ],
					"source" : [ "obj-39", 1 ]
				}

			}
, 			{
				"patchline" : 				{
					"destination" : [ "obj-9", 3 ],
					"source" : [ "obj-4", 0 ]
				}

			}
, 			{
				"patchline" : 				{
					"destination" : [ "obj-27", 2 ],
					"midpoints" : [ 443.5, 561.25, 680.200000000000045, 561.25, 680.200000000000045, 482.25, 1032.900000000000091, 482.25 ],
					"source" : [ "obj-41", 0 ]
				}

			}
, 			{
				"patchline" : 				{
					"destination" : [ "obj-45", 2 ],
					"source" : [ "obj-43", 0 ]
				}

			}
, 			{
				"patchline" : 				{
					"destination" : [ "obj-45", 0 ],
					"source" : [ "obj-44", 0 ]
				}

			}
, 			{
				"patchline" : 				{
					"destination" : [ "obj-36", 0 ],
					"source" : [ "obj-45", 0 ]
				}

			}
, 			{
				"patchline" : 				{
					"destination" : [ "obj-41", 1 ],
					"source" : [ "obj-46", 0 ]
				}

			}
, 			{
				"patchline" : 				{
					"destination" : [ "obj-1", 0 ],
					"midpoints" : [ 851.5, 216.5, 443.5, 216.5 ],
					"source" : [ "obj-47", 0 ]
				}

			}
, 			{
				"patchline" : 				{
					"destination" : [ "obj-1", 0 ],
					"midpoints" : [ 674.0, 298.0, 443.5, 298.0 ],
					"source" : [ "obj-5", 0 ]
				}

			}
, 			{
				"patchline" : 				{
					"destination" : [ "obj-5", 0 ],
					"midpoints" : [ 645.5, 260.0, 674.0, 260.0 ],
					"order" : 0,
					"source" : [ "obj-6", 0 ]
				}

			}
, 			{
				"patchline" : 				{
					"destination" : [ "obj-8", 0 ],
					"midpoints" : [ 645.5, 260.0, 596.5, 260.0 ],
					"order" : 1,
					"source" : [ "obj-6", 0 ]
				}

			}
, 			{
				"patchline" : 				{
					"destination" : [ "obj-14", 1 ],
					"source" : [ "obj-64", 0 ]
				}

			}
, 			{
				"patchline" : 				{
					"destination" : [ "obj-14", 3 ],
					"source" : [ "obj-65", 0 ]
				}

			}
, 			{
				"patchline" : 				{
					"destination" : [ "obj-14", 2 ],
					"midpoints" : [ 149.099999999999909, 405.75, 167.699999999999903, 405.75 ],
					"source" : [ "obj-66", 0 ]
				}

			}
, 			{
				"patchline" : 				{
					"destination" : [ "obj-14", 4 ],
					"source" : [ "obj-67", 0 ]
				}

			}
, 			{
				"patchline" : 				{
					"destination" : [ "obj-14", 5 ],
					"source" : [ "obj-68", 0 ]
				}

			}
, 			{
				"patchline" : 				{
					"destination" : [ "obj-26", 0 ],
					"midpoints" : [ 717.5, 141.5, 801.0, 141.5, 801.0, 32.5, 829.5, 32.5 ],
					"order" : 0,
					"source" : [ "obj-7", 1 ]
				}

			}
, 			{
				"patchline" : 				{
					"destination" : [ "obj-32", 0 ],
					"order" : 1,
					"source" : [ "obj-7", 1 ]
				}

			}
, 			{
				"patchline" : 				{
					"destination" : [ "obj-9", 4 ],
					"midpoints" : [ 717.5, 141.5, 690.5, 141.5 ],
					"order" : 2,
					"source" : [ "obj-7", 1 ]
				}

			}
, 			{
				"patchline" : 				{
					"destination" : [ "obj-64", 0 ],
					"midpoints" : [ 307.899999999999864, 343.5, 97.599999999999909, 343.5 ],
					"order" : 3,
					"source" : [ "obj-71", 0 ]
				}

			}
, 			{
				"patchline" : 				{
					"destination" : [ "obj-65", 0 ],
					"midpoints" : [ 307.899999999999864, 376.5, 237.799999999999955, 376.5 ],
					"order" : 1,
					"source" : [ "obj-71", 0 ]
				}

			}
, 			{
				"patchline" : 				{
					"destination" : [ "obj-66", 0 ],
					"midpoints" : [ 307.899999999999864, 376.5, 149.099999999999909, 376.5 ],
					"order" : 2,
					"source" : [ "obj-71", 0 ]
				}

			}
, 			{
				"patchline" : 				{
					"destination" : [ "obj-67", 0 ],
					"order" : 0,
					"source" : [ "obj-71", 0 ]
				}

			}
, 			{
				"patchline" : 				{
					"destination" : [ "obj-9", 1 ],
					"source" : [ "obj-72", 1 ]
				}

			}
, 			{
				"patchline" : 				{
					"destination" : [ "obj-1", 0 ],
					"midpoints" : [ 596.5, 298.0, 443.5, 298.0 ],
					"source" : [ "obj-8", 0 ]
				}

			}
, 			{
				"patchline" : 				{
					"destination" : [ "obj-1", 0 ],
					"midpoints" : [ 476.5, 290.625, 443.5, 290.625 ],
					"source" : [ "obj-82", 0 ]
				}

			}
, 			{
				"patchline" : 				{
					"destination" : [ "obj-8", 0 ],
					"source" : [ "obj-86", 0 ]
				}

			}
, 			{
				"patchline" : 				{
					"destination" : [ "obj-1", 0 ],
					"source" : [ "obj-9", 0 ]
				}

			}
 ],
		"parameters" : 		{
			"obj-1" : [ "live.step", "live.step", 0 ],
			"obj-12" : [ "live.menu[4]", "live.menu", 0 ],
			"obj-14::obj-88" : [ "live.button[5]", "live.button", 0 ],
			"obj-18" : [ "live.button[6]", "live.button", 0 ],
			"obj-2" : [ "live.menu", "live.menu", 0 ],
			"obj-20" : [ "live.menu[2]", "live.menu", 0 ],
			"obj-27" : [ "amxd~", "amxd~", 0 ],
			"obj-36" : [ "live.button", "live.button", 0 ],
			"obj-39" : [ "live.menu[3]", "live.menu", 0 ],
			"obj-4" : [ "live.button[3]", "live.button", 0 ],
			"obj-41::obj-21" : [ "live.numbox[3]", "live.numbox[3]", 0 ],
			"obj-41::obj-36" : [ "live.numbox[4]", "live.numbox[3]", 0 ],
			"obj-41::obj-38" : [ "live.numbox[5]", "live.numbox[3]", 0 ],
			"obj-41::obj-40" : [ "live.numbox[6]", "live.numbox[3]", 0 ],
			"obj-43" : [ "live.numbox", "live.numbox", 0 ],
			"obj-44" : [ "live.toggle", "live.toggle", 0 ],
			"obj-46" : [ "live.numbox[2]", "live.numbox[2]", 0 ],
			"obj-64" : [ "live.menu[8]", "live.menu", 0 ],
			"obj-65" : [ "live.menu[9]", "live.menu", 0 ],
			"obj-66" : [ "live.menu[10]", "live.menu", 0 ],
			"obj-7" : [ "live.menu[1]", "live.menu", 0 ],
			"obj-72" : [ "live.menu[5]", "live.menu", 0 ],
			"obj-9::obj-21" : [ "live.numbox[7]", "live.numbox[1]", 0 ],
			"obj-9::obj-28" : [ "live.button[1]", "live.button", 0 ],
			"obj-9::obj-3" : [ "live.numbox[1]", "live.numbox[1]", 0 ],
			"obj-9::obj-4" : [ "live.button[2]", "live.button", 0 ],
			"parameterbanks" : 			{

			}
,
			"parameter_overrides" : 			{
				"obj-14::obj-88" : 				{
					"parameter_longname" : "live.button[5]"
				}

			}
,
			"inherited_shortname" : 1
		}
,
		"dependency_cache" : [ 			{
				"name" : "04.Arpeggiation.maxsnap",
				"bootpath" : "~/Documents/Work/Berklee/Git/TeachingMaterials/EP-341/05.Polyphony/03.Chords/data",
				"patcherrelativepath" : "../data",
				"type" : "mx@s",
				"implicit" : 1
			}
, 			{
				"name" : "ClockSource.maxpat",
				"bootpath" : "~/Documents/Work/Berklee/Git/TeachingMaterials/EP-341/05.Polyphony/03.Chords/patchers",
				"patcherrelativepath" : ".",
				"type" : "JSON",
				"implicit" : 1
			}
, 			{
				"name" : "ArpCounter.maxpat",
				"bootpath" : "~/Documents/Work/Berklee/Git/TeachingMaterials/EP-341/05.Polyphony/03.Chords/patchers",
				"patcherrelativepath" : ".",
				"type" : "JSON",
				"implicit" : 1
			}
, 			{
				"name" : "Additive Heaven.amxd.maxsnap",
				"bootpath" : "~/Documents/Max 8/Snapshots",
				"patcherrelativepath" : "../../../../../../../../Max 8/Snapshots",
				"type" : "mx@s",
				"implicit" : 1
			}
, 			{
				"name" : "Additive Heaven.amxd",
				"bootpath" : "C74:/packages/Max for Live/patchers/Max Instrument/Additive Heaven",
				"type" : "amxd",
				"implicit" : 1
			}
, 			{
				"name" : "PlaybackControl.maxpat",
				"bootpath" : "~/Documents/Work/Berklee/Git/TeachingMaterials/EP-341/05.Polyphony/03.Chords/patchers",
				"patcherrelativepath" : ".",
				"type" : "JSON",
				"implicit" : 1
			}
, 			{
				"name" : "GenerateChords.maxpat",
				"bootpath" : "~/Documents/Work/Berklee/Git/TeachingMaterials/EP-341/05.Polyphony/03.Chords/patchers",
				"patcherrelativepath" : ".",
				"type" : "JSON",
				"implicit" : 1
			}
, 			{
				"name" : "GetNote.maxpat",
				"bootpath" : "~/Documents/Work/Berklee/Git/TeachingMaterials/EP-341/05.Polyphony/03.Chords/patchers",
				"patcherrelativepath" : ".",
				"type" : "JSON",
				"implicit" : 1
			}
, 			{
				"name" : "GenerateSteps.maxpat",
				"bootpath" : "~/Documents/Work/Berklee/Git/TeachingMaterials/EP-341/05.Polyphony/03.Chords/patchers",
				"patcherrelativepath" : ".",
				"type" : "JSON",
				"implicit" : 1
			}
 ],
		"autosave" : 0,
		"snapshot" : 		{
			"filetype" : "C74Snapshot",
			"version" : 2,
			"minorversion" : 0,
			"name" : "snapshotlist",
			"origin" : "jpatcher",
			"type" : "list",
			"subtype" : "Undefined",
			"embed" : 1,
			"snapshot" : 			{
				"valuedictionary" : 				{
					"parameter_values" : 					{
						"live.button" : 1.0,
						"live.button[1]" : 0.0,
						"live.button[2]" : 1.0,
						"live.button[3]" : 0.0,
						"live.button[5]" : 0.0,
						"live.button[6]" : 0.0,
						"live.menu" : 0.0,
						"live.menu[10]" : 0.0,
						"live.menu[1]" : 1.0,
						"live.menu[2]" : 0.0,
						"live.menu[3]" : 13.0,
						"live.menu[4]" : 0.0,
						"live.menu[5]" : 3.0,
						"live.menu[8]" : 1.0,
						"live.menu[9]" : 5.0,
						"live.numbox" : 120.0,
						"live.numbox[1]" : 1.0,
						"live.numbox[2]" : 0.0,
						"live.numbox[3]" : 1.0,
						"live.numbox[4]" : 67.0,
						"live.numbox[5]" : 101.0,
						"live.numbox[6]" : 120.0,
						"live.numbox[7]" : 1.0,
						"live.toggle" : 1.0,
						"blob" : 						{
							"amxd~" : [ 								{
									"filetype" : "C74Snapshot",
									"version" : 2,
									"minorversion" : 0,
									"name" : "Additive Heaven.amxd",
									"origin" : "Additive Heaven.amxd",
									"type" : "amxd",
									"subtype" : "Undefined",
									"embed" : 1,
									"snapshot" : 									{
										"name" : "Additive Heaven.amxd",
										"origname" : "C74:/packages/Max for Live/patchers/Max Instrument/Additive Heaven/Additive Heaven.amxd",
										"valuedictionary" : 										{
											"parameter_values" : 											{
												"attack" : 1.0,
												"decay" : 109.0,
												"env_curve" : 0.1,
												"harm_num_2" : 12.0,
												"harm_num_3" : 39.0,
												"harm_num_4" : 8.0,
												"harm_num_5" : 25.0,
												"harm_num_6" : 102.0,
												"harm_num_7" : 103.0,
												"harm_num_8" : 39.0,
												"harm_val_2" : 0.98,
												"harm_val_3" : 3.0,
												"harm_val_4" : 0.66,
												"harm_val_5" : 1.98,
												"harm_val_6" : 8.0,
												"harm_val_7" : 8.02,
												"harm_val_8" : 3.0,
												"harmonic_2" : 12.0,
												"harmonic_3" : 39.0,
												"harmonic_4" : 8.0,
												"harmonic_5" : 25.0,
												"harmonic_6" : 102.0,
												"harmonic_7" : 103.0,
												"harmonic_8" : 39.0,
												"level" : 0.0,
												"pan_1" : 33.0,
												"pan_2" : -16.0,
												"pan_3" : -8.0,
												"pan_4" : 4.0,
												"pan_5" : -21.0,
												"pan_6" : 19.0,
												"pan_7" : -51.0,
												"pan_8" : 56.0,
												"polyphony" : 16.0,
												"release" : 10.0,
												"sustain" : 100.0,
												"vol_harm" : 0.0,
												"vol_num_1" : 127.0,
												"vol_num_2" : 46.0,
												"vol_num_3" : 28.0,
												"vol_num_4" : 30.0,
												"vol_num_5" : 55.0,
												"vol_num_6" : 62.0,
												"vol_num_7" : 30.0,
												"vol_num_8" : 42.0,
												"volume_1" : 127.0,
												"volume_2" : 46.0,
												"volume_3" : 28.0,
												"volume_4" : 30.0,
												"volume_5" : 55.0,
												"volume_6" : 62.0,
												"volume_7" : 30.0,
												"volume_8" : 42.0
											}

										}

									}

								}
 ],
							"live.step" : [ 4, 4, 0, 4, 0, 4, 0, 4, 0, 1, 12, 0, 4, 59.0, 80.0, 0, 0, 67, 101, 4, 127, 127, 62, 83, 4, 127, 127, 60, 57, 4, 127, 127, 63, 78, 4, 127, 127, 1, 12, 0, 4, 48.0, 71.0, 0, 0, 70, 20, 4, 88, 82, 65, 83, 4, 90, 94, 63, 98, 4, 54, 77, 67, 47, 4, 21, 96, 1, 12, 0, 4, 48.0, 71.0, 0, 0, 74, 5, 4, 33, 35, 68, 112, 4, 20, 98, 67, 71, 4, 37, 57, 70, 51, 4, 9, 68, 1, 12, 0, 4, 48.0, 71.0, 0, 0, 77, 34, 4, 43, 67, 72, 117, 4, 17, 111, 70, 126, 4, 2, 6, 74, 112, 4, 83, 111 ]
						}

					}

				}

			}
,
			"snapshotlist" : 			{
				"current_snapshot" : 0,
				"entries" : [ 					{
						"filetype" : "C74Snapshot",
						"version" : 2,
						"minorversion" : 0,
						"name" : "04.Arpeggiation",
						"origin" : "04.Arpeggiation",
						"type" : "patcher",
						"subtype" : "Undefined",
						"embed" : 1,
						"snapshot" : 						{
							"valuedictionary" : 							{
								"parameter_values" : 								{
									"live.button" : 1.0,
									"live.button[1]" : 0.0,
									"live.button[2]" : 1.0,
									"live.button[3]" : 0.0,
									"live.button[5]" : 0.0,
									"live.button[6]" : 0.0,
									"live.menu" : 0.0,
									"live.menu[10]" : 0.0,
									"live.menu[1]" : 1.0,
									"live.menu[2]" : 0.0,
									"live.menu[3]" : 13.0,
									"live.menu[4]" : 0.0,
									"live.menu[5]" : 3.0,
									"live.menu[8]" : 1.0,
									"live.menu[9]" : 5.0,
									"live.numbox" : 120.0,
									"live.numbox[1]" : 1.0,
									"live.numbox[2]" : 0.0,
									"live.numbox[3]" : 1.0,
									"live.numbox[4]" : 67.0,
									"live.numbox[5]" : 101.0,
									"live.numbox[6]" : 120.0,
									"live.numbox[7]" : 1.0,
									"live.toggle" : 1.0,
									"blob" : 									{
										"amxd~" : [ 											{
												"filetype" : "C74Snapshot",
												"version" : 2,
												"minorversion" : 0,
												"name" : "Additive Heaven.amxd",
												"origin" : "Additive Heaven.amxd",
												"type" : "amxd",
												"subtype" : "Undefined",
												"embed" : 1,
												"snapshot" : 												{
													"name" : "Additive Heaven.amxd",
													"origname" : "C74:/packages/Max for Live/patchers/Max Instrument/Additive Heaven/Additive Heaven.amxd",
													"valuedictionary" : 													{
														"parameter_values" : 														{
															"attack" : 1.0,
															"decay" : 109.0,
															"env_curve" : 0.1,
															"harm_num_2" : 12.0,
															"harm_num_3" : 39.0,
															"harm_num_4" : 8.0,
															"harm_num_5" : 25.0,
															"harm_num_6" : 102.0,
															"harm_num_7" : 103.0,
															"harm_num_8" : 39.0,
															"harm_val_2" : 0.98,
															"harm_val_3" : 3.0,
															"harm_val_4" : 0.66,
															"harm_val_5" : 1.98,
															"harm_val_6" : 8.0,
															"harm_val_7" : 8.02,
															"harm_val_8" : 3.0,
															"harmonic_2" : 12.0,
															"harmonic_3" : 39.0,
															"harmonic_4" : 8.0,
															"harmonic_5" : 25.0,
															"harmonic_6" : 102.0,
															"harmonic_7" : 103.0,
															"harmonic_8" : 39.0,
															"level" : 0.0,
															"pan_1" : 33.0,
															"pan_2" : -16.0,
															"pan_3" : -8.0,
															"pan_4" : 4.0,
															"pan_5" : -21.0,
															"pan_6" : 19.0,
															"pan_7" : -51.0,
															"pan_8" : 56.0,
															"polyphony" : 16.0,
															"release" : 10.0,
															"sustain" : 100.0,
															"vol_harm" : 0.0,
															"vol_num_1" : 127.0,
															"vol_num_2" : 46.0,
															"vol_num_3" : 28.0,
															"vol_num_4" : 30.0,
															"vol_num_5" : 55.0,
															"vol_num_6" : 62.0,
															"vol_num_7" : 30.0,
															"vol_num_8" : 42.0,
															"volume_1" : 127.0,
															"volume_2" : 46.0,
															"volume_3" : 28.0,
															"volume_4" : 30.0,
															"volume_5" : 55.0,
															"volume_6" : 62.0,
															"volume_7" : 30.0,
															"volume_8" : 42.0
														}

													}

												}

											}
 ],
										"live.step" : [ 4, 4, 0, 4, 0, 4, 0, 4, 0, 1, 12, 0, 4, 59.0, 80.0, 0, 0, 67, 101, 4, 127, 127, 62, 83, 4, 127, 127, 60, 57, 4, 127, 127, 63, 78, 4, 127, 127, 1, 12, 0, 4, 48.0, 71.0, 0, 0, 70, 20, 4, 88, 82, 65, 83, 4, 90, 94, 63, 98, 4, 54, 77, 67, 47, 4, 21, 96, 1, 12, 0, 4, 48.0, 71.0, 0, 0, 74, 5, 4, 33, 35, 68, 112, 4, 20, 98, 67, 71, 4, 37, 57, 70, 51, 4, 9, 68, 1, 12, 0, 4, 48.0, 71.0, 0, 0, 77, 34, 4, 43, 67, 72, 117, 4, 17, 111, 70, 126, 4, 2, 6, 74, 112, 4, 83, 111 ]
									}

								}

							}

						}
,
						"fileref" : 						{
							"name" : "04.Arpeggiation",
							"filename" : "04.Arpeggiation.maxsnap",
							"filepath" : "~/Documents/Work/Berklee/Git/TeachingMaterials/EP-341/05.Polyphony/03.Chords/data",
							"filepos" : -1,
							"snapshotfileid" : "67324622343dc37932bf493d829a8316"
						}

					}
 ]
			}

		}

	}

}
