{
	"patcher" : 	{
		"fileversion" : 1,
		"appversion" : 		{
			"major" : 8,
			"minor" : 2,
			"revision" : 2,
			"architecture" : "x64",
			"modernui" : 1
		}
,
		"classnamespace" : "box",
		"rect" : [ 34.0, 87.0, 973.0, 482.0 ],
		"bglocked" : 0,
		"openinpresentation" : 0,
		"default_fontsize" : 12.0,
		"default_fontface" : 0,
		"default_fontname" : "Arial",
		"gridonopen" : 1,
		"gridsize" : [ 15.0, 15.0 ],
		"gridsnaponopen" : 1,
		"objectsnaponopen" : 1,
		"statusbarvisible" : 2,
		"toolbarvisible" : 1,
		"lefttoolbarpinned" : 0,
		"toptoolbarpinned" : 0,
		"righttoolbarpinned" : 0,
		"bottomtoolbarpinned" : 0,
		"toolbars_unpinned_last_save" : 0,
		"tallnewobj" : 0,
		"boxanimatetime" : 200,
		"enablehscroll" : 1,
		"enablevscroll" : 1,
		"devicewidth" : 0.0,
		"description" : "",
		"digest" : "",
		"tags" : "",
		"style" : "",
		"subpatcher_template" : "",
		"assistshowspatchername" : 0,
		"boxes" : [ 			{
				"box" : 				{
					"id" : "obj-23",
					"maxclass" : "comment",
					"numinlets" : 1,
					"numoutlets" : 0,
					"patching_rect" : [ 758.0, 23.0, 81.0, 20.0 ],
					"text" : "Multiplier"
				}

			}
, 			{
				"box" : 				{
					"id" : "obj-19",
					"maxclass" : "live.numbox",
					"numinlets" : 1,
					"numoutlets" : 2,
					"outlettype" : [ "", "float" ],
					"parameter_enable" : 1,
					"patching_rect" : [ 758.0, 44.0, 81.0, 15.0 ],
					"saved_attribute_attributes" : 					{
						"valueof" : 						{
							"parameter_longname" : "live.numbox[5]",
							"parameter_mmax" : 4.0,
							"parameter_shortname" : "live.numbox[3]",
							"parameter_type" : 0,
							"parameter_unitstyle" : 1
						}

					}
,
					"varname" : "live.numbox[5]"
				}

			}
, 			{
				"box" : 				{
					"id" : "obj-7",
					"maxclass" : "comment",
					"numinlets" : 1,
					"numoutlets" : 0,
					"patching_rect" : [ 892.0, 85.0, 81.0, 20.0 ],
					"text" : "Multiplier"
				}

			}
, 			{
				"box" : 				{
					"id" : "obj-9",
					"maxclass" : "live.numbox",
					"numinlets" : 1,
					"numoutlets" : 2,
					"outlettype" : [ "", "float" ],
					"parameter_enable" : 1,
					"patching_rect" : [ 878.0, 107.0, 81.0, 15.0 ],
					"saved_attribute_attributes" : 					{
						"valueof" : 						{
							"parameter_longname" : "live.numbox[4]",
							"parameter_mmax" : 4.0,
							"parameter_shortname" : "live.numbox[3]",
							"parameter_type" : 0,
							"parameter_unitstyle" : 1
						}

					}
,
					"varname" : "live.numbox[4]"
				}

			}
, 			{
				"box" : 				{
					"id" : "obj-12",
					"maxclass" : "newobj",
					"numinlets" : 2,
					"numoutlets" : 1,
					"outlettype" : [ "signal" ],
					"patching_rect" : [ 783.0, 142.0, 114.0, 22.0 ],
					"text" : "rate~ 2. @sync lock"
				}

			}
, 			{
				"box" : 				{
					"id" : "obj-16",
					"maxclass" : "live.scope~",
					"numinlets" : 2,
					"numoutlets" : 1,
					"outlettype" : [ "bang" ],
					"patching_rect" : [ 783.0, 174.0, 105.0, 66.0 ]
				}

			}
, 			{
				"box" : 				{
					"id" : "obj-8",
					"maxclass" : "comment",
					"numinlets" : 1,
					"numoutlets" : 0,
					"patching_rect" : [ 773.0, 85.0, 81.0, 20.0 ],
					"text" : "Multiplier"
				}

			}
, 			{
				"box" : 				{
					"id" : "obj-6",
					"maxclass" : "live.numbox",
					"numinlets" : 1,
					"numoutlets" : 2,
					"outlettype" : [ "", "float" ],
					"parameter_enable" : 1,
					"patching_rect" : [ 758.0, 107.0, 81.0, 15.0 ],
					"saved_attribute_attributes" : 					{
						"valueof" : 						{
							"parameter_longname" : "live.numbox[3]",
							"parameter_mmax" : 4.0,
							"parameter_shortname" : "live.numbox[3]",
							"parameter_type" : 0,
							"parameter_unitstyle" : 1
						}

					}
,
					"varname" : "live.numbox[3]"
				}

			}
, 			{
				"box" : 				{
					"id" : "obj-4",
					"maxclass" : "newobj",
					"numinlets" : 2,
					"numoutlets" : 1,
					"outlettype" : [ "signal" ],
					"patching_rect" : [ 657.0, 142.0, 120.0, 22.0 ],
					"text" : "rate~ 2. @sync cycle"
				}

			}
, 			{
				"box" : 				{
					"id" : "obj-3",
					"maxclass" : "live.scope~",
					"numinlets" : 2,
					"numoutlets" : 1,
					"outlettype" : [ "bang" ],
					"patching_rect" : [ 657.0, 174.0, 105.0, 66.0 ]
				}

			}
, 			{
				"box" : 				{
					"id" : "obj-27",
					"maxclass" : "comment",
					"numinlets" : 1,
					"numoutlets" : 0,
					"patching_rect" : [ 575.0, 4.5, 150.0, 20.0 ],
					"text" : "Change oscillation rate"
				}

			}
, 			{
				"box" : 				{
					"id" : "obj-25",
					"maxclass" : "message",
					"numinlets" : 2,
					"numoutlets" : 1,
					"outlettype" : [ "" ],
					"patching_rect" : [ 746.0, 347.0, 29.5, 22.0 ],
					"text" : "0."
				}

			}
, 			{
				"box" : 				{
					"id" : "obj-22",
					"maxclass" : "live.numbox",
					"numinlets" : 1,
					"numoutlets" : 2,
					"outlettype" : [ "", "float" ],
					"parameter_enable" : 1,
					"patching_rect" : [ 584.5, 428.0, 44.0, 15.0 ],
					"saved_attribute_attributes" : 					{
						"valueof" : 						{
							"parameter_longname" : "live.numbox[2]",
							"parameter_shortname" : "live.numbox[1]",
							"parameter_type" : 0,
							"parameter_unitstyle" : 0
						}

					}
,
					"varname" : "live.numbox[2]"
				}

			}
, 			{
				"box" : 				{
					"id" : "obj-21",
					"maxclass" : "live.numbox",
					"numinlets" : 1,
					"numoutlets" : 2,
					"outlettype" : [ "", "float" ],
					"parameter_enable" : 1,
					"patching_rect" : [ 533.0, 428.0, 44.0, 15.0 ],
					"saved_attribute_attributes" : 					{
						"valueof" : 						{
							"parameter_longname" : "live.numbox[1]",
							"parameter_shortname" : "live.numbox[1]",
							"parameter_type" : 0,
							"parameter_unitstyle" : 0
						}

					}
,
					"varname" : "live.numbox[1]"
				}

			}
, 			{
				"box" : 				{
					"id" : "obj-20",
					"maxclass" : "comment",
					"numinlets" : 1,
					"numoutlets" : 0,
					"patching_rect" : [ 522.25, 282.0, 44.0, 20.0 ],
					"text" : "On/Off"
				}

			}
, 			{
				"box" : 				{
					"id" : "obj-18",
					"maxclass" : "live.toggle",
					"numinlets" : 1,
					"numoutlets" : 1,
					"outlettype" : [ "" ],
					"parameter_enable" : 1,
					"patching_rect" : [ 533.0, 301.0, 22.0, 22.0 ],
					"saved_attribute_attributes" : 					{
						"valueof" : 						{
							"parameter_enum" : [ "off", "on" ],
							"parameter_longname" : "live.toggle",
							"parameter_mmax" : 1,
							"parameter_shortname" : "live.toggle",
							"parameter_type" : 2
						}

					}
,
					"varname" : "live.toggle"
				}

			}
, 			{
				"box" : 				{
					"id" : "obj-17",
					"maxclass" : "comment",
					"numinlets" : 1,
					"numoutlets" : 0,
					"patching_rect" : [ 577.0, 254.0, 44.0, 20.0 ],
					"text" : "BPM"
				}

			}
, 			{
				"box" : 				{
					"id" : "obj-15",
					"maxclass" : "live.numbox",
					"numinlets" : 1,
					"numoutlets" : 2,
					"outlettype" : [ "", "float" ],
					"parameter_enable" : 1,
					"patching_rect" : [ 577.0, 270.0, 44.0, 15.0 ],
					"saved_attribute_attributes" : 					{
						"valueof" : 						{
							"parameter_initial" : [ 120.0 ],
							"parameter_initial_enable" : 1,
							"parameter_longname" : "live.numbox",
							"parameter_mmax" : 200.0,
							"parameter_mmin" : 60.0,
							"parameter_shortname" : "live.numbox",
							"parameter_type" : 0,
							"parameter_unitstyle" : 0
						}

					}
,
					"varname" : "live.numbox"
				}

			}
, 			{
				"box" : 				{
					"id" : "obj-14",
					"maxclass" : "newobj",
					"numinlets" : 2,
					"numoutlets" : 1,
					"outlettype" : [ "bang" ],
					"patching_rect" : [ 577.0, 347.0, 113.0, 22.0 ],
					"text" : "metro 4n @active 1"
				}

			}
, 			{
				"box" : 				{
					"id" : "obj-13",
					"maxclass" : "message",
					"numinlets" : 2,
					"numoutlets" : 1,
					"outlettype" : [ "" ],
					"patching_rect" : [ 577.0, 301.0, 59.0, 22.0 ],
					"text" : "tempo $1"
				}

			}
, 			{
				"box" : 				{
					"id" : "obj-11",
					"maxclass" : "newobj",
					"numinlets" : 2,
					"numoutlets" : 9,
					"outlettype" : [ "int", "int", "float", "float", "float", "", "int", "float", "" ],
					"patching_rect" : [ 533.0, 381.0, 232.0, 22.0 ],
					"text" : "transport"
				}

			}
, 			{
				"box" : 				{
					"id" : "obj-10",
					"maxclass" : "live.menu",
					"numinlets" : 1,
					"numoutlets" : 3,
					"outlettype" : [ "", "", "float" ],
					"parameter_enable" : 1,
					"patching_rect" : [ 512.0, 7.0, 61.0, 15.0 ],
					"saved_attribute_attributes" : 					{
						"valueof" : 						{
							"parameter_enum" : [ "1n", "1nd", "1nt", "2n", "2nd", "2nt", "4n", "4nd", "4nt", "8n", "8nd", "8nt", "16n", "16nd", "16nt", "32n", "32nd", "32nt", "64n", "64nd", "64nt", "128n", "128nd", "128nt" ],
							"parameter_longname" : "live.menu",
							"parameter_mmax" : 23,
							"parameter_shortname" : "live.menu",
							"parameter_type" : 2
						}

					}
,
					"varname" : "live.menu"
				}

			}
, 			{
				"box" : 				{
					"id" : "obj-2",
					"maxclass" : "live.scope~",
					"numinlets" : 2,
					"numoutlets" : 1,
					"outlettype" : [ "bang" ],
					"patching_rect" : [ 533.0, 174.0, 105.0, 66.0 ]
				}

			}
, 			{
				"box" : 				{
					"id" : "obj-1",
					"maxclass" : "newobj",
					"numinlets" : 2,
					"numoutlets" : 1,
					"outlettype" : [ "signal" ],
					"patching_rect" : [ 533.0, 40.0, 116.0, 22.0 ],
					"text" : "phasor~ 1n @lock 1"
				}

			}
, 			{
				"box" : 				{
					"fontsize" : 18.0,
					"id" : "obj-5",
					"linecount" : 21,
					"maxclass" : "comment",
					"numinlets" : 1,
					"numoutlets" : 0,
					"patching_rect" : [ 5.0, 44.0, 522.0, 429.0 ],
					"text" : "● Synchronizing [phasor~] to global transport is helpful, but what if we want to set the oscillation rate below the note value 1n?\n\n● [rate~] lets you time-scale the output of [phasor~] based on a multiplier value you give it in the form of an argument of a message.\n\n● A multiplier less than 1 will generate a shorter ramp signal for each cycle of [phasor~].\n\n● A multiplier greater than 1 will generate a longer ramp signal than the original [phasor~] signal.\n\n● The sync mode determines how [rate~] syncs with [phasor~] when the multiplier changes.\n\n● In cycle mode, [rate~]does not change the phase of its output until the end of the current cycle.\n\n● [rate~]performs synchronization in lock mode whenever a new multiplier is received."
				}

			}
, 			{
				"box" : 				{
					"fontsize" : 24.0,
					"id" : "obj-43",
					"maxclass" : "comment",
					"numinlets" : 1,
					"numoutlets" : 0,
					"patching_rect" : [ 5.0, 7.0, 376.0, 33.0 ],
					"text" : "Dividing Time"
				}

			}
 ],
		"lines" : [ 			{
				"patchline" : 				{
					"destination" : [ "obj-12", 0 ],
					"midpoints" : [ 542.5, 132.5, 792.5, 132.5 ],
					"order" : 0,
					"source" : [ "obj-1", 0 ]
				}

			}
, 			{
				"patchline" : 				{
					"destination" : [ "obj-2", 0 ],
					"order" : 2,
					"source" : [ "obj-1", 0 ]
				}

			}
, 			{
				"patchline" : 				{
					"destination" : [ "obj-4", 0 ],
					"midpoints" : [ 542.5, 131.5, 666.5, 131.5 ],
					"order" : 1,
					"source" : [ "obj-1", 0 ]
				}

			}
, 			{
				"patchline" : 				{
					"destination" : [ "obj-1", 0 ],
					"source" : [ "obj-10", 1 ]
				}

			}
, 			{
				"patchline" : 				{
					"destination" : [ "obj-21", 0 ],
					"source" : [ "obj-11", 0 ]
				}

			}
, 			{
				"patchline" : 				{
					"destination" : [ "obj-22", 0 ],
					"midpoints" : [ 569.125, 415.0, 594.0, 415.0 ],
					"source" : [ "obj-11", 1 ]
				}

			}
, 			{
				"patchline" : 				{
					"destination" : [ "obj-16", 0 ],
					"source" : [ "obj-12", 0 ]
				}

			}
, 			{
				"patchline" : 				{
					"destination" : [ "obj-11", 0 ],
					"midpoints" : [ 586.5, 341.5, 542.5, 341.5 ],
					"source" : [ "obj-13", 0 ]
				}

			}
, 			{
				"patchline" : 				{
					"destination" : [ "obj-11", 0 ],
					"midpoints" : [ 586.5, 374.5, 542.5, 374.5 ],
					"source" : [ "obj-14", 0 ]
				}

			}
, 			{
				"patchline" : 				{
					"destination" : [ "obj-13", 0 ],
					"source" : [ "obj-15", 0 ]
				}

			}
, 			{
				"patchline" : 				{
					"destination" : [ "obj-11", 0 ],
					"order" : 1,
					"source" : [ "obj-18", 0 ]
				}

			}
, 			{
				"patchline" : 				{
					"destination" : [ "obj-25", 0 ],
					"midpoints" : [ 542.5, 334.5, 755.5, 334.5 ],
					"order" : 0,
					"source" : [ "obj-18", 0 ]
				}

			}
, 			{
				"patchline" : 				{
					"destination" : [ "obj-6", 0 ],
					"order" : 1,
					"source" : [ "obj-19", 0 ]
				}

			}
, 			{
				"patchline" : 				{
					"destination" : [ "obj-9", 0 ],
					"midpoints" : [ 767.5, 72.5, 887.5, 72.5 ],
					"order" : 0,
					"source" : [ "obj-19", 0 ]
				}

			}
, 			{
				"patchline" : 				{
					"destination" : [ "obj-11", 1 ],
					"source" : [ "obj-25", 0 ]
				}

			}
, 			{
				"patchline" : 				{
					"destination" : [ "obj-3", 0 ],
					"source" : [ "obj-4", 0 ]
				}

			}
, 			{
				"patchline" : 				{
					"destination" : [ "obj-4", 1 ],
					"source" : [ "obj-6", 0 ]
				}

			}
, 			{
				"patchline" : 				{
					"destination" : [ "obj-12", 1 ],
					"source" : [ "obj-9", 0 ]
				}

			}
 ],
		"parameters" : 		{
			"obj-10" : [ "live.menu", "live.menu", 0 ],
			"obj-15" : [ "live.numbox", "live.numbox", 0 ],
			"obj-18" : [ "live.toggle", "live.toggle", 0 ],
			"obj-19" : [ "live.numbox[5]", "live.numbox[3]", 0 ],
			"obj-21" : [ "live.numbox[1]", "live.numbox[1]", 0 ],
			"obj-22" : [ "live.numbox[2]", "live.numbox[1]", 0 ],
			"obj-6" : [ "live.numbox[3]", "live.numbox[3]", 0 ],
			"obj-9" : [ "live.numbox[4]", "live.numbox[3]", 0 ],
			"parameterbanks" : 			{

			}
,
			"inherited_shortname" : 1
		}
,
		"dependency_cache" : [  ],
		"autosave" : 0
	}

}
