{
	"patcher" : 	{
		"fileversion" : 1,
		"appversion" : 		{
			"major" : 8,
			"minor" : 2,
			"revision" : 1,
			"architecture" : "x64",
			"modernui" : 1
		}
,
		"classnamespace" : "box",
		"rect" : [ 571.0, 354.0, 700.0, 426.0 ],
		"bglocked" : 0,
		"openinpresentation" : 0,
		"default_fontsize" : 12.0,
		"default_fontface" : 0,
		"default_fontname" : "Arial",
		"gridonopen" : 1,
		"gridsize" : [ 15.0, 15.0 ],
		"gridsnaponopen" : 1,
		"objectsnaponopen" : 1,
		"statusbarvisible" : 2,
		"toolbarvisible" : 1,
		"lefttoolbarpinned" : 0,
		"toptoolbarpinned" : 0,
		"righttoolbarpinned" : 0,
		"bottomtoolbarpinned" : 0,
		"toolbars_unpinned_last_save" : 0,
		"tallnewobj" : 0,
		"boxanimatetime" : 200,
		"enablehscroll" : 1,
		"enablevscroll" : 1,
		"devicewidth" : 0.0,
		"description" : "AbstractionWithArguments",
		"digest" : "",
		"tags" : "AbstractionWithArguments",
		"style" : "",
		"subpatcher_template" : "",
		"assistshowspatchername" : 0,
		"title" : "AbstractionWithArguments",
		"boxes" : [ 			{
				"box" : 				{
					"id" : "obj-6",
					"maxclass" : "live.button",
					"numinlets" : 1,
					"numoutlets" : 1,
					"outlettype" : [ "" ],
					"parameter_enable" : 1,
					"patching_rect" : [ 394.0, 170.0, 22.0, 22.0 ],
					"saved_attribute_attributes" : 					{
						"valueof" : 						{
							"parameter_enum" : [ "off", "on" ],
							"parameter_longname" : "live.button[1]",
							"parameter_mmax" : 1,
							"parameter_shortname" : "live.button[1]",
							"parameter_type" : 2
						}

					}
,
					"varname" : "live.button"
				}

			}
, 			{
				"box" : 				{
					"id" : "obj-1",
					"maxclass" : "live.toggle",
					"numinlets" : 1,
					"numoutlets" : 1,
					"outlettype" : [ "" ],
					"parameter_enable" : 1,
					"patching_rect" : [ 394.0, 89.0, 22.0, 22.0 ],
					"saved_attribute_attributes" : 					{
						"valueof" : 						{
							"parameter_enum" : [ "off", "on" ],
							"parameter_longname" : "live.toggle",
							"parameter_mmax" : 1,
							"parameter_shortname" : "live.toggle",
							"parameter_type" : 2
						}

					}
,
					"varname" : "live.toggle"
				}

			}
, 			{
				"box" : 				{
					"id" : "obj-5",
					"maxclass" : "live.numbox",
					"numinlets" : 1,
					"numoutlets" : 2,
					"outlettype" : [ "", "float" ],
					"parameter_enable" : 1,
					"patching_rect" : [ 394.0, 262.0, 44.0, 15.0 ],
					"saved_attribute_attributes" : 					{
						"valueof" : 						{
							"parameter_longname" : "live.numbox[6]",
							"parameter_shortname" : "live.numbox",
							"parameter_type" : 0,
							"parameter_unitstyle" : 0
						}

					}
,
					"varname" : "live.numbox[2]"
				}

			}
, 			{
				"box" : 				{
					"id" : "obj-4",
					"maxclass" : "live.numbox",
					"numinlets" : 1,
					"numoutlets" : 2,
					"outlettype" : [ "", "float" ],
					"parameter_enable" : 1,
					"patching_rect" : [ 532.0, 170.0, 44.0, 15.0 ],
					"saved_attribute_attributes" : 					{
						"valueof" : 						{
							"parameter_longname" : "live.numbox[5]",
							"parameter_shortname" : "live.numbox",
							"parameter_type" : 0,
							"parameter_unitstyle" : 0
						}

					}
,
					"varname" : "live.numbox[1]"
				}

			}
, 			{
				"box" : 				{
					"id" : "obj-3",
					"maxclass" : "live.numbox",
					"numinlets" : 1,
					"numoutlets" : 2,
					"outlettype" : [ "", "float" ],
					"parameter_enable" : 1,
					"patching_rect" : [ 463.0, 170.0, 44.0, 15.0 ],
					"saved_attribute_attributes" : 					{
						"valueof" : 						{
							"parameter_longname" : "live.numbox",
							"parameter_shortname" : "live.numbox",
							"parameter_type" : 0,
							"parameter_unitstyle" : 0
						}

					}
,
					"varname" : "live.numbox"
				}

			}
, 			{
				"box" : 				{
					"fontface" : 1,
					"id" : "obj-26",
					"maxclass" : "comment",
					"numinlets" : 1,
					"numoutlets" : 0,
					"patching_rect" : [ 394.0, 56.0, 297.0, 20.0 ],
					"text" : "Initialize 'RandIntArgs.maxpat' with arguments"
				}

			}
, 			{
				"box" : 				{
					"id" : "obj-10",
					"maxclass" : "newobj",
					"numinlets" : 2,
					"numoutlets" : 1,
					"outlettype" : [ "bang" ],
					"patching_rect" : [ 394.0, 129.0, 63.0, 22.0 ],
					"text" : "metro 500"
				}

			}
, 			{
				"box" : 				{
					"id" : "obj-56",
					"maxclass" : "newobj",
					"numinlets" : 3,
					"numoutlets" : 1,
					"outlettype" : [ "" ],
					"patching_rect" : [ 394.0, 221.0, 157.0, 22.0 ],
					"text" : "RandIntArgs 36 78"
				}

			}
, 			{
				"box" : 				{
					"fontface" : 0,
					"fontsize" : 18.0,
					"id" : "obj-16",
					"linecount" : 18,
					"maxclass" : "comment",
					"numinlets" : 1,
					"numoutlets" : 0,
					"patching_rect" : [ 10.0, 48.0, 377.0, 368.0 ],
					"text" : "● Once a child patch is included through abstraction, we can pass arguments just as we do with Max objects.\n\n● To receive the arguments specified in the object box within the child patch, we need to use the '#' sign with numbers. \n\n● This approach is similar to the '$' sign placeholder idea. \n\n● '#1' gets the first argument, '#2' gets the second argument, and so on.\n\n● The patch on the right demonstrates initializing [RandIntArgs.maxpat] with a minimum of 36 and a maximum of 78 to omit [loadmess] entirely in this patch."
				}

			}
, 			{
				"box" : 				{
					"fontsize" : 24.0,
					"id" : "obj-2",
					"maxclass" : "comment",
					"numinlets" : 1,
					"numoutlets" : 0,
					"patching_rect" : [ 10.0, 8.0, 437.0, 33.0 ],
					"text" : "Abstraction with arguments"
				}

			}
, 			{
				"box" : 				{
					"angle" : 270.0,
					"background" : 1,
					"bgcolor" : [ 0.996078431372549, 0.996078431372549, 0.996078431372549, 1.0 ],
					"id" : "obj-28",
					"maxclass" : "panel",
					"mode" : 0,
					"numinlets" : 1,
					"numoutlets" : 0,
					"patching_rect" : [ 389.0, 49.0, 302.0, 235.0 ],
					"proportion" : 0.5
				}

			}
 ],
		"lines" : [ 			{
				"patchline" : 				{
					"destination" : [ "obj-10", 0 ],
					"source" : [ "obj-1", 0 ]
				}

			}
, 			{
				"patchline" : 				{
					"destination" : [ "obj-6", 0 ],
					"source" : [ "obj-10", 0 ]
				}

			}
, 			{
				"patchline" : 				{
					"destination" : [ "obj-56", 1 ],
					"source" : [ "obj-3", 0 ]
				}

			}
, 			{
				"patchline" : 				{
					"destination" : [ "obj-56", 2 ],
					"source" : [ "obj-4", 0 ]
				}

			}
, 			{
				"patchline" : 				{
					"destination" : [ "obj-5", 0 ],
					"source" : [ "obj-56", 0 ]
				}

			}
, 			{
				"patchline" : 				{
					"destination" : [ "obj-56", 0 ],
					"source" : [ "obj-6", 0 ]
				}

			}
 ],
		"parameters" : 		{
			"obj-1" : [ "live.toggle", "live.toggle", 0 ],
			"obj-3" : [ "live.numbox", "live.numbox", 0 ],
			"obj-4" : [ "live.numbox[5]", "live.numbox", 0 ],
			"obj-5" : [ "live.numbox[6]", "live.numbox", 0 ],
			"obj-56::obj-12" : [ "live.numbox[4]", "live.numbox[4]", 0 ],
			"obj-56::obj-3" : [ "live.numbox[1]", "live.numbox[4]", 0 ],
			"obj-56::obj-5" : [ "live.button", "live.button", 0 ],
			"obj-56::obj-7" : [ "live.numbox[2]", "live.numbox[4]", 0 ],
			"obj-56::obj-8" : [ "live.numbox[3]", "live.numbox[4]", 0 ],
			"obj-6" : [ "live.button[1]", "live.button[1]", 0 ],
			"parameterbanks" : 			{

			}
,
			"inherited_shortname" : 1
		}
,
		"dependency_cache" : [ 			{
				"name" : "RandIntArgs.maxpat",
				"bootpath" : "~/Documents/Work/Berklee/Git/TeachingMaterials/EP-341/03.Melody/02.Abstraction",
				"patcherrelativepath" : ".",
				"type" : "JSON",
				"implicit" : 1
			}
 ],
		"autosave" : 0
	}

}
