{
	"patcher" : 	{
		"fileversion" : 1,
		"appversion" : 		{
			"major" : 8,
			"minor" : 2,
			"revision" : 1,
			"architecture" : "x64",
			"modernui" : 1
		}
,
		"classnamespace" : "box",
		"rect" : [ 34.0, 87.0, 1160.0, 740.0 ],
		"bglocked" : 0,
		"openinpresentation" : 0,
		"default_fontsize" : 12.0,
		"default_fontface" : 0,
		"default_fontname" : "Arial",
		"gridonopen" : 1,
		"gridsize" : [ 15.0, 15.0 ],
		"gridsnaponopen" : 1,
		"objectsnaponopen" : 1,
		"statusbarvisible" : 2,
		"toolbarvisible" : 1,
		"lefttoolbarpinned" : 0,
		"toptoolbarpinned" : 0,
		"righttoolbarpinned" : 0,
		"bottomtoolbarpinned" : 0,
		"toolbars_unpinned_last_save" : 0,
		"tallnewobj" : 0,
		"boxanimatetime" : 200,
		"enablehscroll" : 1,
		"enablevscroll" : 1,
		"devicewidth" : 0.0,
		"description" : "",
		"digest" : "",
		"tags" : "",
		"style" : "",
		"subpatcher_template" : "",
		"assistshowspatchername" : 0,
		"boxes" : [ 			{
				"box" : 				{
					"id" : "obj-12",
					"maxclass" : "comment",
					"numinlets" : 1,
					"numoutlets" : 0,
					"patching_rect" : [ 319.0, 576.0, 28.0, 20.0 ],
					"text" : "4"
				}

			}
, 			{
				"box" : 				{
					"id" : "obj-11",
					"maxclass" : "comment",
					"numinlets" : 1,
					"numoutlets" : 0,
					"patching_rect" : [ 243.0, 576.0, 28.0, 20.0 ],
					"text" : "3"
				}

			}
, 			{
				"box" : 				{
					"id" : "obj-10",
					"maxclass" : "comment",
					"numinlets" : 1,
					"numoutlets" : 0,
					"patching_rect" : [ 168.0, 576.0, 28.0, 20.0 ],
					"text" : "2"
				}

			}
, 			{
				"box" : 				{
					"id" : "obj-9",
					"maxclass" : "comment",
					"numinlets" : 1,
					"numoutlets" : 0,
					"patching_rect" : [ 90.0, 576.0, 28.0, 20.0 ],
					"text" : "1"
				}

			}
, 			{
				"box" : 				{
					"id" : "obj-4",
					"maxclass" : "newobj",
					"numinlets" : 1,
					"numoutlets" : 2,
					"outlettype" : [ "", "zlclear" ],
					"patching_rect" : [ 392.0, 316.0, 56.0, 22.0 ],
					"text" : "t l zlclear"
				}

			}
, 			{
				"box" : 				{
					"id" : "obj-64",
					"maxclass" : "comment",
					"numinlets" : 1,
					"numoutlets" : 0,
					"patching_rect" : [ 67.797101449275317, 470.0, 168.5, 20.0 ],
					"text" : "Turn on/off sequencers"
				}

			}
, 			{
				"box" : 				{
					"id" : "obj-63",
					"maxclass" : "ezdac~",
					"numinlets" : 2,
					"numoutlets" : 0,
					"patching_rect" : [ 809.0, 675.0, 45.0, 45.0 ]
				}

			}
, 			{
				"box" : 				{
					"autosave" : 1,
					"bgmode" : 1,
					"border" : 0,
					"clickthrough" : 0,
					"enablehscroll" : 0,
					"enablevscroll" : 0,
					"id" : "obj-62",
					"linecount" : 2,
					"lockeddragscroll" : 0,
					"lockedsize" : 0,
					"maxclass" : "newobj",
					"numinlets" : 3,
					"numoutlets" : 4,
					"offset" : [ 0.0, 0.0 ],
					"outlettype" : [ "signal", "signal", "", "" ],
					"patching_rect" : [ 809.0, 453.0, 343.0, 196.0 ],
					"presentation_linecount" : 2,
					"saved_attribute_attributes" : 					{
						"valueof" : 						{
							"parameter_invisible" : 1,
							"parameter_longname" : "amxd~[1]",
							"parameter_shortname" : "amxd~[1]",
							"parameter_type" : 3
						}

					}
,
					"saved_object_attributes" : 					{
						"parameter_enable" : 1,
						"patchername" : "Additive Heaven.amxd",
						"patchername_fallback" : "C74:/packages/Max for Live/patchers/Max Instrument/Additive Heaven/Additive Heaven.amxd"
					}
,
					"snapshot" : 					{
						"filetype" : "C74Snapshot",
						"version" : 2,
						"minorversion" : 0,
						"name" : "snapshotlist",
						"origin" : "max~",
						"type" : "list",
						"subtype" : "Undefined",
						"embed" : 1,
						"snapshot" : 						{
							"name" : "Additive Heaven.amxd",
							"origname" : "C74:/packages/Max for Live/patchers/Max Instrument/Additive Heaven/Additive Heaven.amxd",
							"valuedictionary" : 							{
								"parameter_values" : 								{
									"attack" : 1.0,
									"decay" : 109.0,
									"env_curve" : 0.1,
									"harm_num_2" : 12.0,
									"harm_num_3" : 39.0,
									"harm_num_4" : 8.0,
									"harm_num_5" : 25.0,
									"harm_num_6" : 102.0,
									"harm_num_7" : 103.0,
									"harm_num_8" : 39.0,
									"harm_val_2" : 0.98,
									"harm_val_3" : 3.0,
									"harm_val_4" : 0.66,
									"harm_val_5" : 1.98,
									"harm_val_6" : 8.0,
									"harm_val_7" : 8.02,
									"harm_val_8" : 3.0,
									"harmonic_2" : 12.0,
									"harmonic_3" : 39.0,
									"harmonic_4" : 8.0,
									"harmonic_5" : 25.0,
									"harmonic_6" : 102.0,
									"harmonic_7" : 103.0,
									"harmonic_8" : 39.0,
									"level" : 0.0,
									"pan_1" : 33.0,
									"pan_2" : -16.0,
									"pan_3" : -8.0,
									"pan_4" : 4.0,
									"pan_5" : -21.0,
									"pan_6" : 19.0,
									"pan_7" : -51.0,
									"pan_8" : 56.0,
									"polyphony" : 16.0,
									"release" : 10.0,
									"sustain" : 100.0,
									"vol_harm" : 0.0,
									"vol_num_1" : 127.0,
									"vol_num_2" : 46.0,
									"vol_num_3" : 28.0,
									"vol_num_4" : 30.0,
									"vol_num_5" : 55.0,
									"vol_num_6" : 62.0,
									"vol_num_7" : 30.0,
									"vol_num_8" : 42.0,
									"volume_1" : 127.0,
									"volume_2" : 46.0,
									"volume_3" : 28.0,
									"volume_4" : 30.0,
									"volume_5" : 55.0,
									"volume_6" : 62.0,
									"volume_7" : 30.0,
									"volume_8" : 42.0
								}

							}

						}
,
						"snapshotlist" : 						{
							"current_snapshot" : 0,
							"entries" : [ 								{
									"filetype" : "C74Snapshot",
									"version" : 2,
									"minorversion" : 0,
									"name" : "Additive Heaven.amxd",
									"origin" : "Additive Heaven.amxd",
									"type" : "amxd",
									"subtype" : "Undefined",
									"embed" : 0,
									"snapshot" : 									{
										"name" : "Additive Heaven.amxd",
										"origname" : "C74:/packages/Max for Live/patchers/Max Instrument/Additive Heaven/Additive Heaven.amxd",
										"valuedictionary" : 										{
											"parameter_values" : 											{
												"attack" : 1.0,
												"decay" : 109.0,
												"env_curve" : 0.1,
												"harm_num_2" : 12.0,
												"harm_num_3" : 39.0,
												"harm_num_4" : 8.0,
												"harm_num_5" : 25.0,
												"harm_num_6" : 102.0,
												"harm_num_7" : 103.0,
												"harm_num_8" : 39.0,
												"harm_val_2" : 0.98,
												"harm_val_3" : 3.0,
												"harm_val_4" : 0.66,
												"harm_val_5" : 1.98,
												"harm_val_6" : 8.0,
												"harm_val_7" : 8.02,
												"harm_val_8" : 3.0,
												"harmonic_2" : 12.0,
												"harmonic_3" : 39.0,
												"harmonic_4" : 8.0,
												"harmonic_5" : 25.0,
												"harmonic_6" : 102.0,
												"harmonic_7" : 103.0,
												"harmonic_8" : 39.0,
												"level" : 0.0,
												"pan_1" : 33.0,
												"pan_2" : -16.0,
												"pan_3" : -8.0,
												"pan_4" : 4.0,
												"pan_5" : -21.0,
												"pan_6" : 19.0,
												"pan_7" : -51.0,
												"pan_8" : 56.0,
												"polyphony" : 16.0,
												"release" : 10.0,
												"sustain" : 100.0,
												"vol_harm" : 0.0,
												"vol_num_1" : 127.0,
												"vol_num_2" : 46.0,
												"vol_num_3" : 28.0,
												"vol_num_4" : 30.0,
												"vol_num_5" : 55.0,
												"vol_num_6" : 62.0,
												"vol_num_7" : 30.0,
												"vol_num_8" : 42.0,
												"volume_1" : 127.0,
												"volume_2" : 46.0,
												"volume_3" : 28.0,
												"volume_4" : 30.0,
												"volume_5" : 55.0,
												"volume_6" : 62.0,
												"volume_7" : 30.0,
												"volume_8" : 42.0
											}

										}

									}
,
									"fileref" : 									{
										"name" : "Additive Heaven.amxd",
										"filename" : "Additive Heaven.amxd.maxsnap",
										"filepath" : "~/Documents/Max 8/Snapshots",
										"filepos" : -1,
										"snapshotfileid" : "525a62ec8518aa296bcb90c4e44836e8"
									}

								}
 ]
						}

					}
,
					"text" : "amxd~ \"C74:/packages/Max for Live/patchers/Max Instrument/Additive Heaven/Additive Heaven.amxd\"",
					"varname" : "amxd~[1]",
					"viewvisibility" : 1
				}

			}
, 			{
				"box" : 				{
					"id" : "obj-61",
					"maxclass" : "newobj",
					"numinlets" : 2,
					"numoutlets" : 2,
					"outlettype" : [ "int", "" ],
					"patching_rect" : [ 350.0, 698.0, 96.0, 22.0 ],
					"text" : "PlaybackControl"
				}

			}
, 			{
				"box" : 				{
					"id" : "obj-60",
					"maxclass" : "message",
					"numinlets" : 2,
					"numoutlets" : 1,
					"outlettype" : [ "" ],
					"patching_rect" : [ 452.0, 698.0, 323.0, 22.0 ],
					"text" : "1 60 101 120. 127 127"
				}

			}
, 			{
				"box" : 				{
					"id" : "obj-58",
					"maxclass" : "newobj",
					"numinlets" : 5,
					"numoutlets" : 2,
					"outlettype" : [ "", "" ],
					"patching_rect" : [ 350.0, 654.0, 187.0, 22.0 ],
					"text" : "router 4 1"
				}

			}
, 			{
				"box" : 				{
					"id" : "obj-56",
					"maxclass" : "newobj",
					"numinlets" : 2,
					"numoutlets" : 2,
					"outlettype" : [ "", "" ],
					"patching_rect" : [ 519.0, 618.0, 37.0, 22.0 ],
					"text" : "zl.rev"
				}

			}
, 			{
				"box" : 				{
					"id" : "obj-57",
					"maxclass" : "newobj",
					"numinlets" : 2,
					"numoutlets" : 2,
					"outlettype" : [ "", "" ],
					"patching_rect" : [ 519.0, 576.0, 55.0, 22.0 ],
					"text" : "zl.slice 6"
				}

			}
, 			{
				"box" : 				{
					"id" : "obj-53",
					"maxclass" : "comment",
					"numinlets" : 1,
					"numoutlets" : 0,
					"patching_rect" : [ 540.0, 535.0, 220.5, 20.0 ],
					"text" : "← Get the second event (a group of 6)"
				}

			}
, 			{
				"box" : 				{
					"id" : "obj-54",
					"maxclass" : "newobj",
					"numinlets" : 2,
					"numoutlets" : 2,
					"outlettype" : [ "", "" ],
					"patching_rect" : [ 477.0, 618.0, 37.0, 22.0 ],
					"text" : "zl.rev"
				}

			}
, 			{
				"box" : 				{
					"id" : "obj-55",
					"maxclass" : "newobj",
					"numinlets" : 2,
					"numoutlets" : 2,
					"outlettype" : [ "", "" ],
					"patching_rect" : [ 477.0, 534.0, 61.0, 22.0 ],
					"text" : "zl.slice 6"
				}

			}
, 			{
				"box" : 				{
					"id" : "obj-52",
					"maxclass" : "comment",
					"numinlets" : 1,
					"numoutlets" : 0,
					"patching_rect" : [ 499.0, 493.0, 220.5, 20.0 ],
					"text" : "← Get the second event (a group of 6)"
				}

			}
, 			{
				"box" : 				{
					"id" : "obj-50",
					"maxclass" : "newobj",
					"numinlets" : 2,
					"numoutlets" : 2,
					"outlettype" : [ "", "" ],
					"patching_rect" : [ 434.0, 618.0, 37.0, 22.0 ],
					"text" : "zl.rev"
				}

			}
, 			{
				"box" : 				{
					"id" : "obj-51",
					"maxclass" : "newobj",
					"numinlets" : 2,
					"numoutlets" : 2,
					"outlettype" : [ "", "" ],
					"patching_rect" : [ 434.0, 492.0, 62.0, 22.0 ],
					"text" : "zl.slice 6"
				}

			}
, 			{
				"box" : 				{
					"columns" : 4,
					"id" : "obj-43",
					"maxclass" : "matrixctrl",
					"numinlets" : 1,
					"numoutlets" : 2,
					"outlettype" : [ "list", "list" ],
					"parameter_enable" : 0,
					"patching_rect" : [ 67.797101449275317, 492.0, 307.202898550724683, 83.0 ],
					"rows" : 1
				}

			}
, 			{
				"box" : 				{
					"id" : "obj-39",
					"maxclass" : "comment",
					"numinlets" : 1,
					"numoutlets" : 0,
					"patching_rect" : [ 558.0, 618.0, 255.5, 20.0 ],
					"text" : "← Reverse the lists to fix the message order"
				}

			}
, 			{
				"box" : 				{
					"id" : "obj-38",
					"maxclass" : "newobj",
					"numinlets" : 2,
					"numoutlets" : 2,
					"outlettype" : [ "", "" ],
					"patching_rect" : [ 392.0, 617.0, 37.0, 22.0 ],
					"text" : "zl.rev"
				}

			}
, 			{
				"box" : 				{
					"id" : "obj-37",
					"maxclass" : "comment",
					"numinlets" : 1,
					"numoutlets" : 0,
					"patching_rect" : [ 447.0, 456.0, 220.5, 20.0 ],
					"text" : "← Get the first event (a group of 6)"
				}

			}
, 			{
				"box" : 				{
					"id" : "obj-36",
					"maxclass" : "newobj",
					"numinlets" : 2,
					"numoutlets" : 2,
					"outlettype" : [ "", "" ],
					"patching_rect" : [ 392.0, 456.0, 61.0, 22.0 ],
					"text" : "zl.slice 6"
				}

			}
, 			{
				"box" : 				{
					"id" : "obj-35",
					"maxclass" : "comment",
					"numinlets" : 1,
					"numoutlets" : 0,
					"patching_rect" : [ 430.0, 418.0, 350.5, 20.0 ],
					"text" : "← Reverse the list so that we can work from the sequencer #1"
				}

			}
, 			{
				"box" : 				{
					"id" : "obj-34",
					"maxclass" : "newobj",
					"numinlets" : 2,
					"numoutlets" : 2,
					"outlettype" : [ "", "" ],
					"patching_rect" : [ 392.0, 417.0, 37.0, 22.0 ],
					"text" : "zl.rev"
				}

			}
, 			{
				"box" : 				{
					"id" : "obj-32",
					"maxclass" : "comment",
					"numinlets" : 1,
					"numoutlets" : 0,
					"patching_rect" : [ 460.0, 358.0, 258.5, 20.0 ],
					"text" : "← 4 sequencers * 6 messages per step"
				}

			}
, 			{
				"box" : 				{
					"id" : "obj-31",
					"maxclass" : "message",
					"numinlets" : 2,
					"numoutlets" : 1,
					"outlettype" : [ "" ],
					"patching_rect" : [ 460.0, 388.0, 540.400000000000091, 22.0 ],
					"text" : "1 65 99 120. 72 43 1 70 27 120. 69 30 1 51 111 120. 80 87 1 60 101 120. 127 127"
				}

			}
, 			{
				"box" : 				{
					"id" : "obj-22",
					"maxclass" : "newobj",
					"numinlets" : 2,
					"numoutlets" : 2,
					"outlettype" : [ "", "" ],
					"patching_rect" : [ 392.0, 357.0, 68.0, 22.0 ],
					"text" : "zl.group 24"
				}

			}
, 			{
				"box" : 				{
					"id" : "obj-20",
					"linecount" : 2,
					"maxclass" : "comment",
					"numinlets" : 1,
					"numoutlets" : 0,
					"patching_rect" : [ 547.0, 317.0, 302.5, 33.0 ],
					"text" : "← Check the print to see how many lines of messages come out per step (it should be 4 lines per step)."
				}

			}
, 			{
				"box" : 				{
					"id" : "obj-19",
					"maxclass" : "comment",
					"numinlets" : 1,
					"numoutlets" : 0,
					"patching_rect" : [ 438.0, 6.25, 168.5, 20.0 ],
					"text" : "← Manually select a step"
				}

			}
, 			{
				"box" : 				{
					"id" : "obj-17",
					"maxclass" : "live.numbox",
					"numinlets" : 1,
					"numoutlets" : 2,
					"outlettype" : [ "", "float" ],
					"parameter_enable" : 1,
					"patching_rect" : [ 392.0, 10.0, 44.0, 15.0 ],
					"saved_attribute_attributes" : 					{
						"valueof" : 						{
							"parameter_initial" : [ 120 ],
							"parameter_initial_enable" : 1,
							"parameter_longname" : "live.numbox",
							"parameter_mmax" : 16.0,
							"parameter_mmin" : 1.0,
							"parameter_shortname" : "live.numbox",
							"parameter_type" : 1,
							"parameter_unitstyle" : 0
						}

					}
,
					"varname" : "live.numbox"
				}

			}
, 			{
				"box" : 				{
					"id" : "obj-16",
					"maxclass" : "newobj",
					"numinlets" : 1,
					"numoutlets" : 0,
					"patching_rect" : [ 460.0, 316.0, 85.0, 22.0 ],
					"text" : "print sequncer"
				}

			}
, 			{
				"box" : 				{
					"fontsize" : 18.0,
					"id" : "obj-23",
					"linecount" : 19,
					"maxclass" : "comment",
					"numinlets" : 1,
					"numoutlets" : 0,
					"patching_rect" : [ 5.0, 46.0, 373.0, 389.0 ],
					"text" : "● When 'target_seq' is set to 0, [live.step] will output event data for all sequencers.\n\n● The order of event data output from [live.step] starts from sequencer #1 and goes up to the number of sequencers you have in [live.step].\n\n● [live.step] only has ways to play one sequencer or all sequencers.\n\n● If we want a mechanism to turn on/off sequencers, we need to do it manually.\n\n● This patcher use [zl.group] to group event data for four sequencers.\n\n● We then use [router] with [matrixctrl] to selectively turn on/off a sequencer."
				}

			}
, 			{
				"box" : 				{
					"fontsize" : 24.0,
					"id" : "obj-24",
					"maxclass" : "comment",
					"numinlets" : 1,
					"numoutlets" : 0,
					"patching_rect" : [ 5.0, 7.0, 370.0, 33.0 ],
					"text" : "Filter Sequencers"
				}

			}
, 			{
				"box" : 				{
					"id" : "obj-8",
					"maxclass" : "message",
					"numinlets" : 2,
					"numoutlets" : 1,
					"outlettype" : [ "" ],
					"patching_rect" : [ 430.0, 77.75, 75.0, 22.0 ],
					"text" : "target_seq 0"
				}

			}
, 			{
				"box" : 				{
					"id" : "obj-6",
					"maxclass" : "newobj",
					"numinlets" : 1,
					"numoutlets" : 1,
					"outlettype" : [ "bang" ],
					"patching_rect" : [ 430.0, 41.25, 58.0, 22.0 ],
					"text" : "loadbang"
				}

			}
, 			{
				"box" : 				{
					"id" : "obj-5",
					"maxclass" : "message",
					"numinlets" : 2,
					"numoutlets" : 1,
					"outlettype" : [ "" ],
					"patching_rect" : [ 507.5, 77.75, 51.0, 22.0 ],
					"text" : "nseq 4"
				}

			}
, 			{
				"box" : 				{
					"id" : "obj-1",
					"maxclass" : "live.step",
					"mode" : 1,
					"nseq" : 4,
					"numinlets" : 1,
					"numoutlets" : 5,
					"outlettype" : [ "", "", "", "", "" ],
					"parameter_enable" : 1,
					"patching_rect" : [ 392.0, 118.25, 608.400000000000091, 169.0 ],
					"saved_attribute_attributes" : 					{
						"valueof" : 						{
							"parameter_invisible" : 1,
							"parameter_longname" : "live.step",
							"parameter_shortname" : "live.step",
							"parameter_type" : 3
						}

					}
,
					"varname" : "live.step"
				}

			}
 ],
		"lines" : [ 			{
				"patchline" : 				{
					"destination" : [ "obj-16", 0 ],
					"midpoints" : [ 401.5, 301.125, 469.5, 301.125 ],
					"order" : 0,
					"source" : [ "obj-1", 0 ]
				}

			}
, 			{
				"patchline" : 				{
					"destination" : [ "obj-4", 0 ],
					"order" : 1,
					"source" : [ "obj-1", 0 ]
				}

			}
, 			{
				"patchline" : 				{
					"destination" : [ "obj-1", 0 ],
					"source" : [ "obj-17", 0 ]
				}

			}
, 			{
				"patchline" : 				{
					"destination" : [ "obj-31", 1 ],
					"midpoints" : [ 401.5, 383.0, 990.900000000000091, 383.0 ],
					"order" : 0,
					"source" : [ "obj-22", 0 ]
				}

			}
, 			{
				"patchline" : 				{
					"destination" : [ "obj-34", 0 ],
					"order" : 1,
					"source" : [ "obj-22", 0 ]
				}

			}
, 			{
				"patchline" : 				{
					"destination" : [ "obj-36", 0 ],
					"source" : [ "obj-34", 0 ]
				}

			}
, 			{
				"patchline" : 				{
					"destination" : [ "obj-38", 0 ],
					"source" : [ "obj-36", 0 ]
				}

			}
, 			{
				"patchline" : 				{
					"destination" : [ "obj-51", 0 ],
					"source" : [ "obj-36", 1 ]
				}

			}
, 			{
				"patchline" : 				{
					"destination" : [ "obj-58", 1 ],
					"source" : [ "obj-38", 0 ]
				}

			}
, 			{
				"patchline" : 				{
					"destination" : [ "obj-22", 0 ],
					"source" : [ "obj-4", 0 ]
				}

			}
, 			{
				"patchline" : 				{
					"destination" : [ "obj-58", 0 ],
					"midpoints" : [ 77.297101449275317, 614.0, 359.5, 614.0 ],
					"source" : [ "obj-43", 0 ]
				}

			}
, 			{
				"patchline" : 				{
					"destination" : [ "obj-1", 0 ],
					"midpoints" : [ 517.0, 109.0, 401.5, 109.0 ],
					"source" : [ "obj-5", 0 ]
				}

			}
, 			{
				"patchline" : 				{
					"destination" : [ "obj-58", 2 ],
					"source" : [ "obj-50", 0 ]
				}

			}
, 			{
				"patchline" : 				{
					"destination" : [ "obj-50", 0 ],
					"source" : [ "obj-51", 0 ]
				}

			}
, 			{
				"patchline" : 				{
					"destination" : [ "obj-55", 0 ],
					"source" : [ "obj-51", 1 ]
				}

			}
, 			{
				"patchline" : 				{
					"destination" : [ "obj-58", 3 ],
					"source" : [ "obj-54", 0 ]
				}

			}
, 			{
				"patchline" : 				{
					"destination" : [ "obj-54", 0 ],
					"source" : [ "obj-55", 0 ]
				}

			}
, 			{
				"patchline" : 				{
					"destination" : [ "obj-57", 0 ],
					"source" : [ "obj-55", 1 ]
				}

			}
, 			{
				"patchline" : 				{
					"destination" : [ "obj-58", 4 ],
					"source" : [ "obj-56", 0 ]
				}

			}
, 			{
				"patchline" : 				{
					"destination" : [ "obj-56", 0 ],
					"source" : [ "obj-57", 0 ]
				}

			}
, 			{
				"patchline" : 				{
					"destination" : [ "obj-60", 1 ],
					"midpoints" : [ 359.5, 686.5, 765.5, 686.5 ],
					"order" : 0,
					"source" : [ "obj-58", 0 ]
				}

			}
, 			{
				"patchline" : 				{
					"destination" : [ "obj-61", 0 ],
					"order" : 1,
					"source" : [ "obj-58", 0 ]
				}

			}
, 			{
				"patchline" : 				{
					"destination" : [ "obj-5", 0 ],
					"midpoints" : [ 439.5, 70.0, 517.0, 70.0 ],
					"order" : 0,
					"source" : [ "obj-6", 0 ]
				}

			}
, 			{
				"patchline" : 				{
					"destination" : [ "obj-8", 0 ],
					"midpoints" : [ 439.5, 70.0, 439.5, 70.0 ],
					"order" : 1,
					"source" : [ "obj-6", 0 ]
				}

			}
, 			{
				"patchline" : 				{
					"destination" : [ "obj-62", 2 ],
					"midpoints" : [ 359.5, 730.0, 803.5, 730.0, 803.5, 442.0, 1142.5, 442.0 ],
					"source" : [ "obj-61", 0 ]
				}

			}
, 			{
				"patchline" : 				{
					"destination" : [ "obj-63", 1 ],
					"source" : [ "obj-62", 1 ]
				}

			}
, 			{
				"patchline" : 				{
					"destination" : [ "obj-63", 0 ],
					"source" : [ "obj-62", 0 ]
				}

			}
, 			{
				"patchline" : 				{
					"destination" : [ "obj-1", 0 ],
					"midpoints" : [ 439.5, 109.0, 401.5, 109.0 ],
					"source" : [ "obj-8", 0 ]
				}

			}
 ],
		"parameters" : 		{
			"obj-1" : [ "live.step", "live.step", 0 ],
			"obj-17" : [ "live.numbox", "live.numbox", 0 ],
			"obj-61::obj-21" : [ "live.numbox[10]", "live.numbox[3]", 0 ],
			"obj-61::obj-36" : [ "live.numbox[8]", "live.numbox[3]", 0 ],
			"obj-61::obj-38" : [ "live.numbox[9]", "live.numbox[3]", 0 ],
			"obj-61::obj-40" : [ "live.numbox[7]", "live.numbox[3]", 0 ],
			"obj-62" : [ "amxd~[1]", "amxd~[1]", 0 ],
			"parameterbanks" : 			{

			}
,
			"parameter_overrides" : 			{
				"obj-61::obj-21" : 				{
					"parameter_longname" : "live.numbox[10]"
				}
,
				"obj-61::obj-36" : 				{
					"parameter_longname" : "live.numbox[8]"
				}
,
				"obj-61::obj-38" : 				{
					"parameter_longname" : "live.numbox[9]"
				}
,
				"obj-61::obj-40" : 				{
					"parameter_longname" : "live.numbox[7]"
				}

			}
,
			"inherited_shortname" : 1
		}
,
		"dependency_cache" : [ 			{
				"name" : "PlaybackControl.maxpat",
				"bootpath" : "~/Documents/Work/Berklee/Git/TeachingMaterials/EP-341/05.Polyphony/02.MultipleSequencers/patchers",
				"patcherrelativepath" : ".",
				"type" : "JSON",
				"implicit" : 1
			}
, 			{
				"name" : "Additive Heaven.amxd.maxsnap",
				"bootpath" : "~/Documents/Max 8/Snapshots",
				"patcherrelativepath" : "../../../../../../../../Max 8/Snapshots",
				"type" : "mx@s",
				"implicit" : 1
			}
, 			{
				"name" : "Additive Heaven.amxd",
				"bootpath" : "C74:/packages/Max for Live/patchers/Max Instrument/Additive Heaven",
				"type" : "amxd",
				"implicit" : 1
			}
 ],
		"autosave" : 0
	}

}
