{
	"patcher" : 	{
		"fileversion" : 1,
		"appversion" : 		{
			"major" : 8,
			"minor" : 2,
			"revision" : 1,
			"architecture" : "x64",
			"modernui" : 1
		}
,
		"classnamespace" : "box",
		"rect" : [ 479.0, 213.0, 1133.0, 743.0 ],
		"bglocked" : 0,
		"openinpresentation" : 0,
		"default_fontsize" : 12.0,
		"default_fontface" : 0,
		"default_fontname" : "Arial",
		"gridonopen" : 1,
		"gridsize" : [ 15.0, 15.0 ],
		"gridsnaponopen" : 1,
		"objectsnaponopen" : 1,
		"statusbarvisible" : 2,
		"toolbarvisible" : 1,
		"lefttoolbarpinned" : 0,
		"toptoolbarpinned" : 0,
		"righttoolbarpinned" : 0,
		"bottomtoolbarpinned" : 0,
		"toolbars_unpinned_last_save" : 0,
		"tallnewobj" : 0,
		"boxanimatetime" : 200,
		"enablehscroll" : 1,
		"enablevscroll" : 1,
		"devicewidth" : 0.0,
		"description" : "",
		"digest" : "",
		"tags" : "",
		"style" : "",
		"subpatcher_template" : "",
		"assistshowspatchername" : 0,
		"boxes" : [ 			{
				"box" : 				{
					"id" : "obj-5",
					"maxclass" : "live.comment",
					"numinlets" : 1,
					"numoutlets" : 0,
					"patching_rect" : [ 380.0, 141.5, 50.0, 18.0 ],
					"text" : "step size",
					"textjustification" : 0
				}

			}
, 			{
				"box" : 				{
					"id" : "obj-6",
					"maxclass" : "live.numbox",
					"numinlets" : 1,
					"numoutlets" : 2,
					"outlettype" : [ "", "float" ],
					"parameter_enable" : 1,
					"patching_rect" : [ 380.0, 157.0, 44.0, 15.0 ],
					"saved_attribute_attributes" : 					{
						"valueof" : 						{
							"parameter_initial" : [ -2 ],
							"parameter_initial_enable" : 1,
							"parameter_longname" : "live.numbox[13]",
							"parameter_mmax" : 7.0,
							"parameter_mmin" : -7.0,
							"parameter_shortname" : "live.numbox[2]",
							"parameter_type" : 0,
							"parameter_unitstyle" : 0
						}

					}
,
					"varname" : "live.numbox[2]"
				}

			}
, 			{
				"box" : 				{
					"id" : "obj-3",
					"maxclass" : "newobj",
					"numinlets" : 1,
					"numoutlets" : 1,
					"outlettype" : [ "bang" ],
					"patching_rect" : [ 358.5, 73.0, 58.0, 22.0 ],
					"text" : "loadbang"
				}

			}
, 			{
				"box" : 				{
					"id" : "obj-72",
					"maxclass" : "live.comment",
					"numinlets" : 1,
					"numoutlets" : 0,
					"patching_rect" : [ 380.0, 120.5, 127.0, 18.0 ],
					"text" : "← Generate random melody",
					"textjustification" : 0
				}

			}
, 			{
				"box" : 				{
					"id" : "obj-71",
					"maxclass" : "newobj",
					"numinlets" : 0,
					"numoutlets" : 1,
					"outlettype" : [ "" ],
					"patching_rect" : [ 503.5, 153.5, 45.0, 22.0 ],
					"text" : "r count"
				}

			}
, 			{
				"box" : 				{
					"id" : "obj-69",
					"maxclass" : "live.comment",
					"numinlets" : 1,
					"numoutlets" : 0,
					"patching_rect" : [ 431.0, 141.5, 50.0, 18.0 ],
					"text" : "root note",
					"textjustification" : 0
				}

			}
, 			{
				"box" : 				{
					"id" : "obj-70",
					"maxclass" : "live.numbox",
					"numinlets" : 1,
					"numoutlets" : 2,
					"outlettype" : [ "", "float" ],
					"parameter_enable" : 1,
					"patching_rect" : [ 431.0, 157.0, 44.0, 15.0 ],
					"saved_attribute_attributes" : 					{
						"valueof" : 						{
							"parameter_initial" : [ 60 ],
							"parameter_initial_enable" : 1,
							"parameter_longname" : "live.numbox[12]",
							"parameter_shortname" : "live.numbox[2]",
							"parameter_type" : 0,
							"parameter_unitstyle" : 0
						}

					}
,
					"varname" : "live.numbox[4]"
				}

			}
, 			{
				"box" : 				{
					"id" : "obj-68",
					"maxclass" : "live.button",
					"numinlets" : 1,
					"numoutlets" : 1,
					"outlettype" : [ "" ],
					"parameter_enable" : 1,
					"patching_rect" : [ 358.5, 118.5, 22.0, 22.0 ],
					"saved_attribute_attributes" : 					{
						"valueof" : 						{
							"parameter_enum" : [ "off", "on" ],
							"parameter_longname" : "live.button[6]",
							"parameter_mmax" : 1,
							"parameter_shortname" : "live.button[2]",
							"parameter_type" : 2
						}

					}
,
					"varname" : "live.button[3]"
				}

			}
, 			{
				"box" : 				{
					"id" : "obj-67",
					"maxclass" : "newobj",
					"numinlets" : 4,
					"numoutlets" : 1,
					"outlettype" : [ "" ],
					"patching_rect" : [ 358.5, 182.5, 164.0, 22.0 ],
					"text" : "WeightedRandomMajorScale"
				}

			}
, 			{
				"box" : 				{
					"autosave" : 1,
					"bgmode" : 1,
					"border" : 0,
					"clickthrough" : 0,
					"enablehscroll" : 0,
					"enablevscroll" : 0,
					"id" : "obj-1",
					"linecount" : 2,
					"lockeddragscroll" : 0,
					"lockedsize" : 0,
					"maxclass" : "newobj",
					"numinlets" : 3,
					"numoutlets" : 4,
					"offset" : [ 0.0, 0.0 ],
					"outlettype" : [ "signal", "signal", "", "" ],
					"patching_rect" : [ 358.5, 470.0, 343.0, 196.0 ],
					"presentation_linecount" : 2,
					"saved_attribute_attributes" : 					{
						"valueof" : 						{
							"parameter_invisible" : 1,
							"parameter_longname" : "amxd~",
							"parameter_shortname" : "amxd~",
							"parameter_type" : 3
						}

					}
,
					"saved_object_attributes" : 					{
						"parameter_enable" : 1,
						"patchername" : "Additive Heaven.amxd",
						"patchername_fallback" : "C74:/packages/Max for Live/patchers/Max Instrument/Additive Heaven/Additive Heaven.amxd"
					}
,
					"snapshot" : 					{
						"filetype" : "C74Snapshot",
						"version" : 2,
						"minorversion" : 0,
						"name" : "snapshotlist",
						"origin" : "max~",
						"type" : "list",
						"subtype" : "Undefined",
						"embed" : 1,
						"snapshot" : 						{
							"name" : "Additive Heaven.amxd",
							"origname" : "C74:/packages/Max for Live/patchers/Max Instrument/Additive Heaven/Additive Heaven.amxd",
							"valuedictionary" : 							{
								"parameter_values" : 								{
									"attack" : 1.0,
									"decay" : 109.0,
									"env_curve" : 0.1,
									"harm_num_2" : 12.0,
									"harm_num_3" : 39.0,
									"harm_num_4" : 8.0,
									"harm_num_5" : 25.0,
									"harm_num_6" : 102.0,
									"harm_num_7" : 103.0,
									"harm_num_8" : 39.0,
									"harm_val_2" : 0.98,
									"harm_val_3" : 3.0,
									"harm_val_4" : 0.66,
									"harm_val_5" : 1.98,
									"harm_val_6" : 8.0,
									"harm_val_7" : 8.02,
									"harm_val_8" : 3.0,
									"harmonic_2" : 12.0,
									"harmonic_3" : 39.0,
									"harmonic_4" : 8.0,
									"harmonic_5" : 25.0,
									"harmonic_6" : 102.0,
									"harmonic_7" : 103.0,
									"harmonic_8" : 39.0,
									"level" : -4.285714285714263,
									"pan_1" : 33.0,
									"pan_2" : -16.0,
									"pan_3" : -8.0,
									"pan_4" : 4.0,
									"pan_5" : -21.0,
									"pan_6" : 19.0,
									"pan_7" : -51.0,
									"pan_8" : 56.0,
									"polyphony" : 16.0,
									"release" : 10.0,
									"sustain" : 100.0,
									"vol_harm" : 0.0,
									"vol_num_1" : 127.0,
									"vol_num_2" : 46.0,
									"vol_num_3" : 28.0,
									"vol_num_4" : 30.0,
									"vol_num_5" : 55.0,
									"vol_num_6" : 62.0,
									"vol_num_7" : 30.0,
									"vol_num_8" : 42.0,
									"volume_1" : 127.0,
									"volume_2" : 46.0,
									"volume_3" : 28.0,
									"volume_4" : 30.0,
									"volume_5" : 55.0,
									"volume_6" : 62.0,
									"volume_7" : 30.0,
									"volume_8" : 42.0
								}

							}

						}
,
						"snapshotlist" : 						{
							"current_snapshot" : 0,
							"entries" : [ 								{
									"filetype" : "C74Snapshot",
									"version" : 2,
									"minorversion" : 0,
									"name" : "Additive Heaven.amxd",
									"origin" : "Additive Heaven.amxd",
									"type" : "amxd",
									"subtype" : "Undefined",
									"embed" : 0,
									"snapshot" : 									{
										"name" : "Additive Heaven.amxd",
										"origname" : "C74:/packages/Max for Live/patchers/Max Instrument/Additive Heaven/Additive Heaven.amxd",
										"valuedictionary" : 										{
											"parameter_values" : 											{
												"attack" : 1.0,
												"decay" : 109.0,
												"env_curve" : 0.1,
												"harm_num_2" : 12.0,
												"harm_num_3" : 39.0,
												"harm_num_4" : 8.0,
												"harm_num_5" : 25.0,
												"harm_num_6" : 102.0,
												"harm_num_7" : 103.0,
												"harm_num_8" : 39.0,
												"harm_val_2" : 0.98,
												"harm_val_3" : 3.0,
												"harm_val_4" : 0.66,
												"harm_val_5" : 1.98,
												"harm_val_6" : 8.0,
												"harm_val_7" : 8.02,
												"harm_val_8" : 3.0,
												"harmonic_2" : 12.0,
												"harmonic_3" : 39.0,
												"harmonic_4" : 8.0,
												"harmonic_5" : 25.0,
												"harmonic_6" : 102.0,
												"harmonic_7" : 103.0,
												"harmonic_8" : 39.0,
												"level" : -4.285714285714263,
												"pan_1" : 33.0,
												"pan_2" : -16.0,
												"pan_3" : -8.0,
												"pan_4" : 4.0,
												"pan_5" : -21.0,
												"pan_6" : 19.0,
												"pan_7" : -51.0,
												"pan_8" : 56.0,
												"polyphony" : 16.0,
												"release" : 10.0,
												"sustain" : 100.0,
												"vol_harm" : 0.0,
												"vol_num_1" : 127.0,
												"vol_num_2" : 46.0,
												"vol_num_3" : 28.0,
												"vol_num_4" : 30.0,
												"vol_num_5" : 55.0,
												"vol_num_6" : 62.0,
												"vol_num_7" : 30.0,
												"vol_num_8" : 42.0,
												"volume_1" : 127.0,
												"volume_2" : 46.0,
												"volume_3" : 28.0,
												"volume_4" : 30.0,
												"volume_5" : 55.0,
												"volume_6" : 62.0,
												"volume_7" : 30.0,
												"volume_8" : 42.0
											}

										}

									}
,
									"fileref" : 									{
										"name" : "Additive Heaven.amxd",
										"filename" : "Additive Heaven.amxd.maxsnap",
										"filepath" : "~/Documents/Max 8/Snapshots",
										"filepos" : -1,
										"snapshotfileid" : "525a62ec8518aa296bcb90c4e44836e8"
									}

								}
 ]
						}

					}
,
					"text" : "amxd~ \"C74:/packages/Max for Live/patchers/Max Instrument/Additive Heaven/Additive Heaven.amxd\"",
					"varname" : "amxd~",
					"viewvisibility" : 1
				}

			}
, 			{
				"box" : 				{
					"id" : "obj-35",
					"maxclass" : "ezdac~",
					"numinlets" : 2,
					"numoutlets" : 0,
					"patching_rect" : [ 358.5, 688.0, 45.0, 45.0 ]
				}

			}
, 			{
				"box" : 				{
					"id" : "obj-32",
					"maxclass" : "newobj",
					"numinlets" : 1,
					"numoutlets" : 0,
					"patching_rect" : [ 837.5, 153.5, 47.0, 22.0 ],
					"text" : "s count"
				}

			}
, 			{
				"box" : 				{
					"id" : "obj-27",
					"maxclass" : "live.comment",
					"numinlets" : 1,
					"numoutlets" : 0,
					"patching_rect" : [ 435.5, 383.0, 60.0, 18.0 ],
					"text" : "transpose",
					"textjustification" : 0
				}

			}
, 			{
				"box" : 				{
					"id" : "obj-29",
					"maxclass" : "live.numbox",
					"numinlets" : 1,
					"numoutlets" : 2,
					"outlettype" : [ "", "float" ],
					"parameter_enable" : 1,
					"patching_rect" : [ 435.5, 398.5, 44.0, 15.0 ],
					"saved_attribute_attributes" : 					{
						"valueof" : 						{
							"parameter_longname" : "live.numbox[7]",
							"parameter_shortname" : "live.numbox[2]",
							"parameter_type" : 0,
							"parameter_unitstyle" : 0
						}

					}
,
					"varname" : "live.numbox[3]"
				}

			}
, 			{
				"box" : 				{
					"id" : "obj-26",
					"maxclass" : "newobj",
					"numinlets" : 2,
					"numoutlets" : 2,
					"outlettype" : [ "int", "" ],
					"patching_rect" : [ 358.5, 431.0, 96.0, 22.0 ],
					"text" : "PlaybackControl"
				}

			}
, 			{
				"box" : 				{
					"fontface" : 1,
					"id" : "obj-80",
					"maxclass" : "comment",
					"numinlets" : 1,
					"numoutlets" : 0,
					"patching_rect" : [ 945.799999999999955, 115.0, 148.399999999999977, 20.0 ],
					"text" : "Set [live.step] attributes"
				}

			}
, 			{
				"box" : 				{
					"fontface" : 1,
					"id" : "obj-75",
					"maxclass" : "comment",
					"numinlets" : 1,
					"numoutlets" : 0,
					"patching_rect" : [ 817.5, 8.0, 120.399999999999977, 20.0 ],
					"text" : "Time Management"
				}

			}
, 			{
				"box" : 				{
					"id" : "obj-66",
					"linecount" : 2,
					"maxclass" : "comment",
					"numinlets" : 1,
					"numoutlets" : 0,
					"patching_rect" : [ 962.900000000000091, 147.5, 150.0, 33.0 ],
					"text" : "Set the number of steps and adjust the loop point."
				}

			}
, 			{
				"box" : 				{
					"id" : "obj-47",
					"maxclass" : "message",
					"numinlets" : 2,
					"numoutlets" : 1,
					"outlettype" : [ "" ],
					"patching_rect" : [ 950.5, 182.5, 111.0, 22.0 ],
					"text" : "nstep $1, loop 1 $1"
				}

			}
, 			{
				"box" : 				{
					"id" : "obj-9",
					"maxclass" : "newobj",
					"numinlets" : 4,
					"numoutlets" : 1,
					"outlettype" : [ "" ],
					"patching_rect" : [ 563.5, 153.5, 260.0, 22.0 ],
					"text" : "CountSource 8"
				}

			}
, 			{
				"box" : 				{
					"id" : "obj-28",
					"maxclass" : "live.button",
					"numinlets" : 1,
					"numoutlets" : 1,
					"outlettype" : [ "" ],
					"parameter_enable" : 1,
					"patching_rect" : [ 724.166666666666629, 114.0, 22.0, 22.0 ],
					"saved_attribute_attributes" : 					{
						"valueof" : 						{
							"parameter_enum" : [ "off", "on" ],
							"parameter_longname" : "live.button[3]",
							"parameter_mmax" : 1,
							"parameter_shortname" : "live.button",
							"parameter_type" : 2
						}

					}
,
					"varname" : "live.button[1]"
				}

			}
, 			{
				"box" : 				{
					"id" : "obj-11",
					"maxclass" : "comment",
					"numinlets" : 1,
					"numoutlets" : 0,
					"patching_rect" : [ 610.75, 95.5, 101.5, 20.0 ],
					"text" : "Count Direction"
				}

			}
, 			{
				"box" : 				{
					"id" : "obj-20",
					"maxclass" : "live.menu",
					"numinlets" : 1,
					"numoutlets" : 3,
					"outlettype" : [ "", "", "float" ],
					"parameter_enable" : 1,
					"patching_rect" : [ 611.833333333333371, 117.5, 73.0, 15.0 ],
					"saved_attribute_attributes" : 					{
						"valueof" : 						{
							"parameter_enum" : [ "up", "down", "palindrome" ],
							"parameter_initial" : [ 0.0 ],
							"parameter_initial_enable" : 1,
							"parameter_longname" : "live.menu[2]",
							"parameter_mmax" : 2,
							"parameter_shortname" : "live.menu",
							"parameter_type" : 2
						}

					}
,
					"varname" : "live.menu[2]"
				}

			}
, 			{
				"box" : 				{
					"id" : "obj-24",
					"maxclass" : "live.menu",
					"numinlets" : 1,
					"numoutlets" : 3,
					"outlettype" : [ "", "", "float" ],
					"parameter_enable" : 1,
					"patching_rect" : [ 817.5, 117.5, 59.0, 15.0 ],
					"saved_attribute_attributes" : 					{
						"valueof" : 						{
							"parameter_enum" : [ "2", "4", "8", "16", "32", "64" ],
							"parameter_initial" : [ 2.0 ],
							"parameter_initial_enable" : 1,
							"parameter_longname" : "live.menu[1]",
							"parameter_mmax" : 5,
							"parameter_shortname" : "live.menu",
							"parameter_type" : 2
						}

					}
,
					"varname" : "live.menu[1]"
				}

			}
, 			{
				"box" : 				{
					"id" : "obj-30",
					"maxclass" : "comment",
					"numinlets" : 1,
					"numoutlets" : 0,
					"patching_rect" : [ 817.5, 95.5, 102.5, 20.0 ],
					"text" : "Maximum Count"
				}

			}
, 			{
				"box" : 				{
					"id" : "obj-31",
					"maxclass" : "comment",
					"numinlets" : 1,
					"numoutlets" : 0,
					"patching_rect" : [ 720.166666666666629, 95.5, 90.5, 20.0 ],
					"text" : "Reset Counter"
				}

			}
, 			{
				"box" : 				{
					"id" : "obj-34",
					"maxclass" : "live.numbox",
					"numinlets" : 1,
					"numoutlets" : 2,
					"outlettype" : [ "", "float" ],
					"parameter_enable" : 1,
					"patching_rect" : [ 563.5, 193.5, 44.0, 15.0 ],
					"saved_attribute_attributes" : 					{
						"valueof" : 						{
							"parameter_longname" : "live.numbox[8]",
							"parameter_shortname" : "live.numbox[1]",
							"parameter_type" : 1,
							"parameter_unitstyle" : 0
						}

					}
,
					"varname" : "live.numbox[1]"
				}

			}
, 			{
				"box" : 				{
					"id" : "obj-36",
					"maxclass" : "live.button",
					"numinlets" : 1,
					"numoutlets" : 1,
					"outlettype" : [ "" ],
					"parameter_enable" : 1,
					"patching_rect" : [ 563.5, 100.5, 22.0, 22.0 ],
					"saved_attribute_attributes" : 					{
						"valueof" : 						{
							"parameter_enum" : [ "off", "on" ],
							"parameter_longname" : "live.button",
							"parameter_mmax" : 1,
							"parameter_shortname" : "live.button",
							"parameter_type" : 2
						}

					}
,
					"varname" : "live.button"
				}

			}
, 			{
				"box" : 				{
					"id" : "obj-37",
					"maxclass" : "comment",
					"numinlets" : 1,
					"numoutlets" : 0,
					"patching_rect" : [ 554.0, 8.0, 100.0, 20.0 ],
					"text" : "On/off"
				}

			}
, 			{
				"box" : 				{
					"id" : "obj-38",
					"maxclass" : "comment",
					"numinlets" : 1,
					"numoutlets" : 0,
					"patching_rect" : [ 754.5, 8.0, 44.0, 20.0 ],
					"text" : "BPM"
				}

			}
, 			{
				"box" : 				{
					"id" : "obj-39",
					"maxclass" : "live.menu",
					"numinlets" : 1,
					"numoutlets" : 3,
					"outlettype" : [ "", "", "float" ],
					"parameter_enable" : 1,
					"patching_rect" : [ 618.5, 27.5, 100.0, 15.0 ],
					"saved_attribute_attributes" : 					{
						"valueof" : 						{
							"parameter_enum" : [ "1nd", "1n", "1nt", "2nd", "2n", "2nt", "4nd", "4n", "4nd", "8nd", "8n", "8nt", "16nd", "16n", "16nt" ],
							"parameter_initial" : [ 13.0 ],
							"parameter_initial_enable" : 1,
							"parameter_longname" : "live.menu[3]",
							"parameter_mmax" : 14,
							"parameter_shortname" : "live.menu",
							"parameter_type" : 2
						}

					}
,
					"varname" : "live.menu[3]"
				}

			}
, 			{
				"box" : 				{
					"id" : "obj-42",
					"maxclass" : "comment",
					"numinlets" : 1,
					"numoutlets" : 0,
					"patching_rect" : [ 618.5, 8.0, 100.0, 20.0 ],
					"text" : "Timing (Note)"
				}

			}
, 			{
				"box" : 				{
					"id" : "obj-43",
					"maxclass" : "live.numbox",
					"numinlets" : 1,
					"numoutlets" : 2,
					"outlettype" : [ "", "float" ],
					"parameter_enable" : 1,
					"patching_rect" : [ 754.5, 27.5, 44.0, 15.0 ],
					"saved_attribute_attributes" : 					{
						"valueof" : 						{
							"parameter_initial" : [ 120 ],
							"parameter_initial_enable" : 1,
							"parameter_longname" : "live.numbox",
							"parameter_mmax" : 320.0,
							"parameter_mmin" : 60.0,
							"parameter_shortname" : "live.numbox",
							"parameter_type" : 0,
							"parameter_unitstyle" : 0
						}

					}
,
					"varname" : "live.numbox"
				}

			}
, 			{
				"box" : 				{
					"id" : "obj-44",
					"maxclass" : "live.toggle",
					"numinlets" : 1,
					"numoutlets" : 1,
					"outlettype" : [ "" ],
					"parameter_enable" : 1,
					"patching_rect" : [ 563.5, 24.0, 22.0, 22.0 ],
					"saved_attribute_attributes" : 					{
						"valueof" : 						{
							"parameter_enum" : [ "off", "on" ],
							"parameter_longname" : "live.toggle",
							"parameter_mmax" : 1,
							"parameter_shortname" : "live.toggle",
							"parameter_type" : 2
						}

					}
,
					"varname" : "live.toggle"
				}

			}
, 			{
				"box" : 				{
					"id" : "obj-45",
					"maxclass" : "newobj",
					"numinlets" : 3,
					"numoutlets" : 1,
					"outlettype" : [ "bang" ],
					"patching_rect" : [ 563.5, 62.5, 210.0, 22.0 ],
					"text" : "ClockSource 16n @bpm 120"
				}

			}
, 			{
				"box" : 				{
					"id" : "obj-52",
					"maxclass" : "live.step",
					"numinlets" : 1,
					"numoutlets" : 5,
					"outlettype" : [ "", "", "", "", "" ],
					"parameter_enable" : 1,
					"patching_rect" : [ 358.5, 228.0, 754.400000000000091, 148.0 ],
					"saved_attribute_attributes" : 					{
						"valueof" : 						{
							"parameter_invisible" : 1,
							"parameter_longname" : "live.step",
							"parameter_shortname" : "live.step",
							"parameter_type" : 3
						}

					}
,
					"varname" : "live.step"
				}

			}
, 			{
				"box" : 				{
					"fontsize" : 18.0,
					"id" : "obj-4",
					"linecount" : 16,
					"maxclass" : "comment",
					"numinlets" : 1,
					"numoutlets" : 0,
					"patching_rect" : [ 7.0, 48.0, 343.0, 328.0 ],
					"text" : "● Use [coll] to restrict generated notes to a scale.\n\n● This patcher stores the major scale interval relationship in [coll].\n\n● First value is index that [coll] listens to.\n\n● [coll] will then spit out the values after the comma (,).\n\n● The values can be any type including, integer, float, symbol, and list.\n\n● Use the '@embed 1' to store data in [coll] with the patcher.  "
				}

			}
, 			{
				"box" : 				{
					"fontsize" : 24.0,
					"id" : "obj-2",
					"maxclass" : "comment",
					"numinlets" : 1,
					"numoutlets" : 0,
					"patching_rect" : [ 7.0, 8.0, 289.0, 33.0 ],
					"text" : "Play Major Scale"
				}

			}
, 			{
				"box" : 				{
					"angle" : 270.0,
					"background" : 1,
					"bgcolor" : [ 1.0, 1.0, 1.0, 1.0 ],
					"id" : "obj-53",
					"maxclass" : "panel",
					"mode" : 0,
					"numinlets" : 1,
					"numoutlets" : 0,
					"patching_rect" : [ 352.0, 108.0, 196.0, 102.5 ],
					"proportion" : 0.5
				}

			}
, 			{
				"box" : 				{
					"angle" : 270.0,
					"background" : 1,
					"bgcolor" : [ 1.0, 1.0, 1.0, 1.0 ],
					"id" : "obj-79",
					"maxclass" : "panel",
					"mode" : 0,
					"numinlets" : 1,
					"numoutlets" : 0,
					"patching_rect" : [ 943.366666666666788, 108.0, 169.533333333333303, 103.5 ],
					"proportion" : 0.5
				}

			}
, 			{
				"box" : 				{
					"angle" : 270.0,
					"background" : 1,
					"bgcolor" : [ 1.0, 1.0, 1.0, 1.0 ],
					"id" : "obj-73",
					"maxclass" : "panel",
					"mode" : 0,
					"numinlets" : 1,
					"numoutlets" : 0,
					"patching_rect" : [ 554.0, 8.0, 381.0, 202.5 ],
					"proportion" : 0.5
				}

			}
 ],
		"lines" : [ 			{
				"patchline" : 				{
					"destination" : [ "obj-35", 1 ],
					"midpoints" : [ 476.0, 676.5, 394.0, 676.5 ],
					"source" : [ "obj-1", 1 ]
				}

			}
, 			{
				"patchline" : 				{
					"destination" : [ "obj-35", 0 ],
					"source" : [ "obj-1", 0 ]
				}

			}
, 			{
				"patchline" : 				{
					"destination" : [ "obj-9", 1 ],
					"midpoints" : [ 621.333333333333371, 142.5, 653.333333333333371, 142.5 ],
					"source" : [ "obj-20", 0 ]
				}

			}
, 			{
				"patchline" : 				{
					"destination" : [ "obj-32", 0 ],
					"order" : 1,
					"source" : [ "obj-24", 1 ]
				}

			}
, 			{
				"patchline" : 				{
					"destination" : [ "obj-47", 0 ],
					"midpoints" : [ 847.0, 143.5, 960.0, 143.5 ],
					"order" : 0,
					"source" : [ "obj-24", 1 ]
				}

			}
, 			{
				"patchline" : 				{
					"destination" : [ "obj-9", 3 ],
					"midpoints" : [ 847.0, 142.5, 814.0, 142.5 ],
					"order" : 2,
					"source" : [ "obj-24", 1 ]
				}

			}
, 			{
				"patchline" : 				{
					"destination" : [ "obj-1", 2 ],
					"midpoints" : [ 368.0, 461.0, 692.0, 461.0 ],
					"source" : [ "obj-26", 0 ]
				}

			}
, 			{
				"patchline" : 				{
					"destination" : [ "obj-9", 2 ],
					"source" : [ "obj-28", 0 ]
				}

			}
, 			{
				"patchline" : 				{
					"destination" : [ "obj-26", 1 ],
					"source" : [ "obj-29", 0 ]
				}

			}
, 			{
				"patchline" : 				{
					"destination" : [ "obj-68", 0 ],
					"source" : [ "obj-3", 0 ]
				}

			}
, 			{
				"patchline" : 				{
					"destination" : [ "obj-52", 0 ],
					"midpoints" : [ 573.0, 217.75, 368.0, 217.75 ],
					"source" : [ "obj-34", 0 ]
				}

			}
, 			{
				"patchline" : 				{
					"destination" : [ "obj-9", 0 ],
					"source" : [ "obj-36", 0 ]
				}

			}
, 			{
				"patchline" : 				{
					"destination" : [ "obj-45", 1 ],
					"source" : [ "obj-39", 1 ]
				}

			}
, 			{
				"patchline" : 				{
					"destination" : [ "obj-45", 2 ],
					"source" : [ "obj-43", 0 ]
				}

			}
, 			{
				"patchline" : 				{
					"destination" : [ "obj-45", 0 ],
					"source" : [ "obj-44", 0 ]
				}

			}
, 			{
				"patchline" : 				{
					"destination" : [ "obj-36", 0 ],
					"source" : [ "obj-45", 0 ]
				}

			}
, 			{
				"patchline" : 				{
					"destination" : [ "obj-52", 0 ],
					"midpoints" : [ 960.0, 223.75, 368.0, 223.75 ],
					"source" : [ "obj-47", 0 ]
				}

			}
, 			{
				"patchline" : 				{
					"destination" : [ "obj-26", 0 ],
					"source" : [ "obj-52", 0 ]
				}

			}
, 			{
				"patchline" : 				{
					"destination" : [ "obj-67", 1 ],
					"source" : [ "obj-6", 0 ]
				}

			}
, 			{
				"patchline" : 				{
					"destination" : [ "obj-52", 0 ],
					"source" : [ "obj-67", 0 ]
				}

			}
, 			{
				"patchline" : 				{
					"destination" : [ "obj-67", 0 ],
					"source" : [ "obj-68", 0 ]
				}

			}
, 			{
				"patchline" : 				{
					"destination" : [ "obj-67", 2 ],
					"source" : [ "obj-70", 0 ]
				}

			}
, 			{
				"patchline" : 				{
					"destination" : [ "obj-67", 3 ],
					"source" : [ "obj-71", 0 ]
				}

			}
, 			{
				"patchline" : 				{
					"destination" : [ "obj-34", 0 ],
					"source" : [ "obj-9", 0 ]
				}

			}
 ],
		"parameters" : 		{
			"obj-1" : [ "amxd~", "amxd~", 0 ],
			"obj-20" : [ "live.menu[2]", "live.menu", 0 ],
			"obj-24" : [ "live.menu[1]", "live.menu", 0 ],
			"obj-26::obj-21" : [ "live.numbox[3]", "live.numbox[3]", 0 ],
			"obj-26::obj-36" : [ "live.numbox[4]", "live.numbox[3]", 0 ],
			"obj-26::obj-38" : [ "live.numbox[5]", "live.numbox[3]", 0 ],
			"obj-26::obj-40" : [ "live.numbox[6]", "live.numbox[3]", 0 ],
			"obj-28" : [ "live.button[3]", "live.button", 0 ],
			"obj-29" : [ "live.numbox[7]", "live.numbox[2]", 0 ],
			"obj-34" : [ "live.numbox[8]", "live.numbox[1]", 0 ],
			"obj-36" : [ "live.button", "live.button", 0 ],
			"obj-39" : [ "live.menu[3]", "live.menu", 0 ],
			"obj-43" : [ "live.numbox", "live.numbox", 0 ],
			"obj-44" : [ "live.toggle", "live.toggle", 0 ],
			"obj-52" : [ "live.step", "live.step", 0 ],
			"obj-6" : [ "live.numbox[13]", "live.numbox[2]", 0 ],
			"obj-67::obj-59" : [ "live.numbox[10]", "live.numbox[2]", 0 ],
			"obj-67::obj-60" : [ "live.numbox[11]", "live.numbox[2]", 0 ],
			"obj-67::obj-63" : [ "live.button[5]", "live.button[2]", 0 ],
			"obj-68" : [ "live.button[6]", "live.button[2]", 0 ],
			"obj-70" : [ "live.numbox[12]", "live.numbox[2]", 0 ],
			"obj-9::obj-28" : [ "live.button[1]", "live.button", 0 ],
			"obj-9::obj-3" : [ "live.numbox[1]", "live.numbox[1]", 0 ],
			"obj-9::obj-4" : [ "live.button[2]", "live.button", 0 ],
			"parameterbanks" : 			{

			}
,
			"inherited_shortname" : 1
		}
,
		"dependency_cache" : [ 			{
				"name" : "ClockSource.maxpat",
				"bootpath" : "~/Documents/Work/Berklee/Git/TeachingMaterials/EP-341/04.Melody/01.Melody",
				"patcherrelativepath" : ".",
				"type" : "JSON",
				"implicit" : 1
			}
, 			{
				"name" : "CountSource.maxpat",
				"bootpath" : "~/Documents/Work/Berklee/Git/TeachingMaterials/EP-341/04.Melody/01.Melody",
				"patcherrelativepath" : ".",
				"type" : "JSON",
				"implicit" : 1
			}
, 			{
				"name" : "PlaybackControl.maxpat",
				"bootpath" : "~/Documents/Work/Berklee/Git/TeachingMaterials/EP-341/04.Melody/01.Melody",
				"patcherrelativepath" : ".",
				"type" : "JSON",
				"implicit" : 1
			}
, 			{
				"name" : "Additive Heaven.amxd.maxsnap",
				"bootpath" : "~/Documents/Max 8/Snapshots",
				"patcherrelativepath" : "../../../../../../../Max 8/Snapshots",
				"type" : "mx@s",
				"implicit" : 1
			}
, 			{
				"name" : "Additive Heaven.amxd",
				"bootpath" : "C74:/packages/Max for Live/patchers/Max Instrument/Additive Heaven",
				"type" : "amxd",
				"implicit" : 1
			}
, 			{
				"name" : "WeightedRandomMajorScale.maxpat",
				"bootpath" : "~/Documents/Work/Berklee/Git/TeachingMaterials/EP-341/04.Melody/01.Melody",
				"patcherrelativepath" : ".",
				"type" : "JSON",
				"implicit" : 1
			}
 ],
		"autosave" : 0
	}

}
